<?xml version="1.0" standalone="no"?>
<!DOCTYPE svg PUBLIC "-//W3C//DTD SVG 20010904//EN"
 "http://www.w3.org/TR/2001/REC-SVG-20010904/DTD/svg10.dtd">
<svg version="1.0" xmlns="http://www.w3.org/2000/svg"
 width="1080.000000pt" height="1080.000000pt" viewBox="0 0 1080.000000 1080.000000"
 preserveAspectRatio="xMidYMid meet">

<g transform="translate(0.000000,1080.000000) scale(0.100000,-0.100000)"
fill="#000000" stroke="none">
<path d="M5265 10725 c-71 -19 -159 -42 -194 -50 -100 -22 -133 -56 -117 -120
8 -33 40 -40 92 -20 64 24 75 17 72 -52 -1 -32 2 -102 6 -155 5 -54 6 -98 2
-98 -4 0 -60 -9 -124 -20 -111 -19 -136 -24 -249 -51 -95 -23 -250 -72 -351
-111 -56 -23 -105 -38 -109 -34 -4 3 3 23 16 44 62 103 85 165 85 232 0 79
-21 124 -91 192 -54 53 -122 87 -171 88 -61 0 -106 -75 -68 -113 8 -8 35 -17
61 -20 55 -8 96 -34 124 -81 28 -44 26 -99 -3 -161 -54 -115 -141 -152 -206
-90 -36 34 -64 84 -74 132 -17 79 -87 111 -123 57 -26 -40 -19 -98 22 -181 39
-79 97 -138 172 -174 52 -25 50 -30 -44 -79 -50 -26 -65 -30 -81 -21 -30 16
-38 14 -77 -20 -19 -17 -41 -29 -49 -26 -15 6 -198 229 -240 294 -53 80 -79
96 -130 82 -54 -16 -59 -51 -18 -131 27 -52 27 -55 27 -248 0 -107 -4 -212 -8
-232 -10 -46 -69 -107 -205 -213 -154 -119 -139 -111 -163 -89 -12 11 -36 51
-54 90 -18 39 -38 74 -44 78 -20 13 -11 34 41 98 29 34 56 65 59 68 17 13 59
85 59 100 0 26 -39 70 -62 70 -25 0 -77 -53 -137 -138 -42 -59 -158 -173 -293
-285 -49 -41 -58 -54 -58 -82 0 -57 48 -87 97 -61 16 8 49 38 75 68 25 30 58
60 72 68 24 12 28 11 51 -10 36 -34 107 -147 103 -164 -1 -8 -66 -67 -142
-132 l-139 -117 -26 17 c-72 47 -115 60 -201 60 -74 1 -95 -3 -160 -32 -120
-52 -136 -42 -70 43 49 63 98 103 173 139 59 28 77 52 77 100 0 36 -37 76 -70
76 -50 0 -153 -92 -289 -255 -96 -116 -125 -173 -118 -228 13 -99 87 -113 225
-42 114 58 164 75 223 75 45 0 119 -25 119 -41 0 -4 -78 -84 -172 -178 -159
-157 -198 -186 -198 -148 0 20 -39 67 -56 67 -24 0 -54 -39 -54 -70 0 -17 9
-48 20 -70 28 -54 26 -65 -20 -120 -37 -44 -43 -48 -78 -44 -25 3 -51 -3 -82
-18 -43 -22 -45 -25 -48 -70 -4 -62 9 -83 67 -113 40 -20 55 -23 81 -15 53 15
60 26 60 100 0 64 2 70 41 119 22 28 44 51 49 51 4 0 25 -7 45 -16 65 -27 151
-36 229 -24 85 12 224 78 263 124 94 111 104 279 27 428 -8 16 -13 36 -10 43
5 13 266 235 276 235 4 0 14 -15 23 -32 44 -88 125 -237 145 -271 39 -61 103
-60 117 4 6 25 0 40 -31 87 -48 73 -157 280 -152 291 8 23 286 237 295 227 3
-3 2 -35 -2 -71 -5 -54 -12 -73 -37 -101 -25 -28 -29 -40 -24 -67 9 -46 66
-100 107 -100 55 0 75 48 88 214 5 58 14 115 20 127 6 12 33 36 59 53 26 18
71 53 100 77 59 50 49 53 140 -33 73 -68 146 -113 198 -121 61 -9 92 1 100 32
11 43 -15 74 -91 109 -82 38 -175 116 -175 149 0 34 86 110 177 155 46 23 89
41 96 41 17 0 62 -85 107 -200 42 -108 57 -125 104 -116 21 4 42 16 51 30 18
28 9 61 -43 150 -19 32 -48 88 -64 124 -24 54 -27 67 -16 78 18 17 189 84 328
127 127 40 387 95 465 99 l50 3 3 -93 c2 -76 -1 -101 -18 -138 -11 -26 -20
-52 -20 -59 0 -7 23 -20 52 -30 43 -14 58 -15 88 -5 30 10 46 9 90 -4 223 -66
483 95 484 301 1 74 -8 71 136 45 l95 -17 7 -60 c10 -81 5 -99 -47 -180 -25
-38 -46 -79 -46 -90 -4 -64 16 -88 71 -83 31 3 38 9 62 52 14 28 39 87 54 133
20 61 32 83 43 81 8 -2 45 -62 81 -134 36 -72 76 -145 90 -163 27 -36 87 -71
120 -71 62 0 163 76 158 119 -3 25 -6 26 -68 26 -36 1 -71 2 -78 3 -15 2 -95
125 -122 187 -25 57 -26 95 -4 95 51 0 421 -137 443 -164 8 -9 -1 -35 -29 -92
-56 -109 -63 -182 -27 -257 50 -100 133 -147 277 -154 82 -4 103 -2 154 17 66
25 141 87 150 125 4 14 10 25 15 25 5 0 52 -34 104 -75 186 -145 186 -145 53
-160 -45 -5 -68 -3 -96 10 -33 15 -42 15 -66 4 -62 -31 -89 -107 -54 -152 19
-23 28 -27 76 -27 30 0 98 9 150 21 53 11 107 18 120 15 12 -3 43 -24 68 -45
24 -21 67 -53 95 -71 30 -20 51 -41 51 -51 0 -10 -13 -40 -28 -66 -106 -181
-101 -378 8 -333 32 13 44 39 59 128 11 69 51 158 82 184 20 17 23 17 62 -4
46 -23 177 -144 177 -163 0 -15 -63 -70 -139 -123 -81 -55 -131 -109 -131
-138 0 -37 16 -62 52 -80 17 -9 61 -44 98 -79 87 -82 122 -99 255 -126 51 -10
70 -9 123 5 34 8 79 27 100 41 20 14 42 25 49 25 6 0 37 -42 69 -92 56 -92 57
-93 45 -135 -18 -68 -14 -101 15 -130 23 -23 31 -25 74 -20 63 8 108 31 116
61 16 63 -40 146 -98 146 -13 0 -31 6 -39 13 -18 14 -129 192 -129 206 0 5 16
34 35 66 74 124 82 279 26 515 -38 158 -107 361 -129 378 -23 17 -60 7 -94
-26 -34 -32 -35 -49 -3 -112 32 -63 32 -88 1 -100 -14 -5 -44 -35 -67 -67 -52
-71 -158 -183 -174 -183 -6 0 -37 26 -68 58 -41 41 -56 63 -51 75 11 30 -4 62
-41 81 -20 11 -35 27 -35 37 0 19 149 234 223 321 52 62 61 91 41 129 -29 57
-74 58 -124 4 -14 -15 -37 -33 -53 -41 -81 -43 -332 -112 -414 -116 -47 -1
-60 7 -218 133 -131 104 -306 229 -428 303 -42 27 -80 52 -83 57 -6 10 5 6
125 -45 153 -65 232 -69 247 -12 9 37 -10 61 -63 80 -107 38 -238 106 -241
125 -4 22 69 88 107 98 32 8 142 -28 271 -90 132 -63 169 -69 204 -34 30 30
34 67 9 89 -10 9 -49 26 -88 38 -75 25 -123 46 -225 103 -140 77 -214 58 -340
-89 -26 -32 -67 -67 -91 -78 -31 -15 -45 -30 -52 -51 -5 -16 -10 -36 -12 -43
-3 -9 -20 -5 -62 14 -67 30 -234 97 -278 111 -38 12 -37 24 6 45 61 30 132 92
153 133 32 61 29 149 -6 203 -33 49 -133 109 -217 129 -84 20 -295 43 -393 43
-100 0 -128 -15 -128 -70 0 -43 30 -57 139 -63 51 -3 95 -8 98 -11 3 -3 -4
-16 -15 -30 -13 -17 -22 -49 -26 -93 -4 -38 -14 -89 -22 -115 -18 -57 -15 -56
-169 -28 -60 11 -120 20 -134 20 -17 0 -43 17 -81 54 -30 30 -77 67 -105 83
-29 17 -51 37 -53 49 -2 11 13 47 33 79 35 60 40 76 36 130 -10 112 -132 135
-376 70z m233 -115 c7 -38 -116 -180 -198 -228 l-40 -24 -11 29 c-6 15 -9 58
-6 96 5 76 26 109 81 126 77 24 169 25 174 1z m954 -146 c87 -28 148 -75 148
-116 0 -60 -142 -137 -270 -145 -122 -9 -125 -2 -74 159 13 42 24 88 24 101 0
13 3 27 7 31 10 10 74 -2 165 -30z m-903 -165 c54 -19 34 -29 -56 -29 -92 0
-97 4 -36 25 47 17 53 18 92 4z m91 -89 c24 -13 43 -72 35 -110 -7 -33 -56
-80 -117 -111 -80 -41 -230 -37 -274 6 -20 20 -24 34 -24 89 0 53 4 70 23 91
21 24 29 26 162 34 77 4 148 9 158 10 10 0 27 -3 37 -9z m-2021 -428 c49 -61
59 -85 43 -108 -10 -15 -103 -77 -108 -72 -6 7 -12 236 -6 243 10 10 20 1 71
-63z m3367 41 c81 -44 304 -192 304 -201 0 -10 -43 -43 -90 -67 -57 -30 -162
-26 -233 9 -87 42 -115 99 -93 185 13 51 40 101 55 101 5 0 30 -12 57 -27z
m1069 -493 c5 -8 -45 -89 -83 -132 -25 -29 -55 -21 -102 27 -24 24 -42 46 -39
49 2 2 38 13 79 24 41 11 86 25 100 31 32 13 38 13 45 1z m528 -398 c30 -33
49 -148 44 -257 -4 -101 -28 -185 -51 -185 -6 1 -31 26 -56 56 -25 31 -73 85
-107 122 -34 37 -62 74 -63 82 0 20 124 157 165 181 37 23 48 24 68 1z m-5948
-192 c23 -26 30 -96 16 -158 -15 -61 -71 -121 -150 -159 -47 -23 -68 -27 -125
-26 -84 3 -106 9 -106 32 0 21 313 331 333 331 8 0 22 -9 32 -20z m5716 -87
c84 -87 179 -206 179 -223 0 -10 -16 -24 -40 -35 -76 -34 -176 -9 -290 73 -81
58 -80 78 11 164 39 38 77 68 83 68 7 0 32 -21 57 -47z"/>
<path d="M5871 9512 c-49 -53 -111 -148 -111 -172 0 -8 -7 -24 -15 -34 -8 -11
-15 -27 -15 -36 0 -9 -9 -33 -20 -55 -11 -22 -20 -45 -20 -52 0 -21 20 -15 29
10 5 13 17 29 26 37 9 8 21 24 25 35 5 12 30 52 57 89 26 37 55 79 63 92 8 13
28 33 43 45 22 17 27 28 25 53 -5 48 -35 44 -87 -12z"/>
<path d="M5524 9503 c-42 -65 -64 -116 -73 -175 -5 -35 -14 -81 -20 -103 -6
-22 -13 -64 -16 -92 -4 -43 -3 -53 9 -53 21 0 37 34 40 84 2 23 8 52 15 64 6
12 12 42 13 66 0 28 6 47 14 50 8 3 14 14 14 24 0 10 8 26 18 36 23 20 47 89
39 110 -10 24 -33 19 -53 -11z"/>
<path d="M5730 9503 c-8 -3 -38 -29 -65 -57 -50 -50 -63 -79 -93 -201 -6 -22
-19 -76 -30 -120 -28 -108 -34 -162 -21 -170 6 -4 7 -14 3 -24 -3 -9 -9 -43
-11 -76 -5 -70 -11 -79 -75 -111 -72 -36 -82 -33 -74 22 4 31 2 52 -6 62 -15
18 -15 279 0 337 6 22 14 74 18 115 4 41 13 95 20 119 16 53 4 84 -29 79 -40
-6 -53 -47 -97 -308 -17 -99 -12 -396 8 -471 10 -37 24 -74 31 -83 15 -18 42
-21 57 -6 6 6 53 32 105 58 l94 48 6 64 c4 36 7 99 8 141 0 41 5 79 10 85 5 5
12 32 15 59 2 28 12 64 20 80 9 17 16 40 16 53 0 52 74 206 113 235 46 35 27
90 -23 70z"/>
<path d="M6035 9408 c-33 -35 -71 -80 -83 -100 -13 -20 -36 -51 -53 -69 -16
-17 -47 -70 -70 -118 -22 -47 -45 -93 -50 -101 -10 -17 -10 -16 -33 -86 -23
-69 -26 -161 -6 -174 8 -6 24 -8 35 -4 38 11 70 4 114 -27 42 -30 68 -32 75
-7 32 121 112 264 212 376 89 102 205 195 269 217 38 13 48 59 16 70 -30 9
-129 -40 -184 -92 -18 -17 -47 -39 -64 -49 -18 -10 -33 -22 -33 -27 0 -5 -28
-36 -62 -71 -82 -81 -108 -114 -108 -136 0 -9 -7 -23 -15 -30 -8 -7 -15 -21
-15 -31 0 -10 -5 -21 -10 -24 -13 -8 -40 -72 -40 -96 0 -23 -28 -25 -55 -5
-19 14 -19 15 4 64 l24 51 -21 32 -20 33 33 65 c18 36 52 90 74 120 22 30 44
63 47 75 4 11 17 29 30 39 13 10 24 23 24 29 0 6 16 28 35 49 37 42 42 58 23
77 -20 20 -29 15 -93 -50z"/>
<path d="M5195 9424 c-8 -20 -15 -45 -15 -56 0 -11 -7 -41 -16 -69 -9 -27 -14
-61 -11 -76 3 -15 1 -35 -4 -45 -13 -25 -13 -216 1 -233 7 -8 7 -16 1 -19 -10
-7 -12 -204 -1 -211 13 -8 32 136 20 150 -8 9 -6 24 4 51 9 22 15 55 14 74 -2
52 12 161 23 181 5 10 9 30 9 45 0 16 10 68 22 117 16 65 19 93 11 105 -19 31
-41 25 -58 -14z"/>
<path d="M7057 9338 c-78 -79 -297 -221 -315 -203 -4 3 10 22 31 41 66 62 39
93 -43 50 l-50 -26 0 25 c0 14 -7 28 -16 32 -17 6 -83 -26 -124 -61 -14 -12
-36 -27 -50 -35 -24 -13 -39 -25 -148 -114 -69 -56 -131 -119 -144 -147 -6
-14 -25 -36 -42 -50 -26 -22 -29 -22 -22 -5 16 40 18 55 6 55 -14 0 -49 -40
-50 -56 0 -7 -7 -14 -15 -18 -8 -3 -15 -11 -15 -17 0 -7 -6 -20 -14 -28 -23
-27 -59 -142 -48 -153 6 -6 15 -2 26 13 20 29 29 20 30 -28 1 -33 4 -38 27
-41 20 -2 32 4 48 26 12 17 21 34 21 39 0 6 9 18 20 28 10 9 37 45 59 79 36
55 186 196 208 196 5 0 22 14 39 31 34 36 213 144 222 134 4 -4 -1 -11 -11
-16 -34 -20 -213 -168 -274 -228 -34 -34 -78 -89 -99 -124 -20 -34 -47 -73
-60 -87 -12 -14 -30 -43 -39 -65 -9 -22 -29 -54 -45 -70 l-30 -31 31 -59 c18
-33 38 -67 45 -75 7 -9 20 -36 29 -60 9 -24 22 -51 29 -60 8 -8 17 -31 21 -50
4 -19 14 -44 21 -55 8 -11 14 -27 14 -37 0 -16 17 -56 55 -128 7 -14 16 -45
20 -70 3 -25 9 -53 11 -62 3 -10 1 -18 -5 -18 -6 0 -11 6 -11 13 0 20 -60 137
-71 137 -18 0 -20 -28 -5 -65 9 -21 16 -45 16 -54 0 -10 11 -28 25 -41 13 -12
22 -27 19 -31 -6 -10 22 -100 42 -141 8 -14 14 -39 14 -55 0 -16 6 -52 14 -79
8 -27 17 -70 20 -96 2 -26 7 -51 10 -56 6 -11 30 -198 41 -327 5 -65 15 -233
19 -340 2 -55 9 -115 15 -134 9 -28 8 -38 -5 -52 -12 -14 -14 -33 -10 -96 4
-43 8 -107 10 -143 3 -36 8 -73 11 -82 6 -16 1 -18 -39 -18 -30 0 -46 -4 -46
-12 1 -24 27 -48 52 -48 22 0 24 -4 26 -52 3 -87 14 -113 48 -116 29 -3 30 -2
26 33 -2 19 -8 38 -13 41 -5 3 -9 42 -10 87 0 45 -4 104 -8 132 -5 27 -5 79 0
115 6 51 5 68 -7 81 -12 13 -13 25 -4 64 6 28 8 73 4 104 -4 31 -8 97 -8 146
-1 50 -7 107 -14 127 -9 24 -10 43 -4 54 5 9 5 37 0 67 -5 29 -9 70 -9 91 1
21 -4 45 -10 52 -6 7 -8 21 -5 31 3 10 -1 31 -9 47 -11 21 -12 31 -4 36 8 5 6
24 -5 66 -22 82 -26 134 -11 134 8 0 17 -24 24 -57 6 -32 16 -78 21 -103 6
-25 20 -108 30 -185 11 -77 24 -167 30 -200 5 -33 14 -112 20 -175 6 -63 15
-158 21 -210 22 -186 30 -328 33 -569 2 -202 0 -240 -11 -225 -7 11 -21 28
-32 39 -10 11 -21 30 -25 43 -4 12 -16 27 -27 32 -10 6 -19 17 -19 25 0 8 -4
15 -10 15 -5 0 -10 9 -10 19 0 19 -47 61 -67 61 -5 0 -16 12 -23 26 -8 14 -26
32 -40 39 -14 8 -52 40 -86 73 -33 32 -78 72 -100 88 -21 16 -50 39 -64 52
-14 12 -30 22 -36 22 -6 0 -17 6 -23 14 -7 8 -36 27 -64 41 -29 15 -59 34 -68
42 -32 27 -195 104 -242 113 -26 5 -64 21 -85 35 -21 14 -51 25 -70 25 -18 0
-47 7 -65 17 -30 15 -51 19 -152 29 -22 3 -80 8 -130 13 -101 10 -149 8 -280
-14 -49 -9 -103 -17 -120 -19 -16 -3 -50 -9 -75 -15 -61 -14 -60 -15 -60 20 0
17 4 28 10 24 6 -3 10 0 10 8 0 8 9 26 20 39 10 14 16 28 12 32 -3 4 1 4 11 0
11 -4 17 -1 17 9 0 8 7 20 15 27 19 16 55 96 55 122 0 10 -12 42 -26 70 -19
37 -24 59 -20 82 4 17 7 45 9 62 1 17 6 30 12 28 5 -2 11 10 12 28 2 18 14 64
28 102 14 38 25 77 25 88 0 10 4 26 10 36 5 9 16 42 24 72 8 30 22 78 31 105
25 69 49 140 70 205 21 61 32 205 15 195 -5 -3 -10 3 -10 13 0 22 -18 32 -61
32 -20 0 -27 -4 -23 -14 3 -8 1 -17 -5 -21 -6 -3 -11 1 -11 9 0 9 -5 16 -10
16 -6 0 -10 -6 -9 -12 3 -26 -1 -38 -13 -38 -15 0 -70 -66 -80 -95 -6 -20 -6
-20 -7 1 -1 11 10 48 23 82 14 34 22 62 19 62 -3 0 -1 6 5 13 5 6 15 29 20 51
10 36 10 37 -6 22 -10 -8 -24 -32 -31 -53 -7 -21 -22 -58 -34 -82 -17 -36 -22
-41 -27 -26 -5 15 -11 10 -28 -26 -12 -25 -22 -53 -22 -61 0 -9 -6 -18 -12
-21 -10 -3 -10 -7 -1 -17 7 -8 8 -22 2 -42 -12 -44 -20 -48 -13 -7 5 32 5 33
-10 15 -9 -11 -16 -26 -16 -35 0 -8 -6 -22 -13 -30 -8 -9 -22 -45 -32 -81 -10
-36 -21 -69 -25 -75 -4 -5 -19 -46 -35 -90 -16 -44 -35 -91 -42 -105 -7 -14
-13 -33 -13 -43 0 -10 -4 -26 -9 -36 -5 -9 -12 -35 -14 -58 -3 -22 -12 -54
-21 -72 -9 -17 -21 -60 -26 -94 -15 -98 -22 -131 -31 -143 -5 -6 -7 -19 -3
-28 4 -9 1 -16 -6 -16 -8 0 -11 -11 -8 -32 3 -19 -1 -42 -8 -53 -15 -22 -64
-217 -64 -253 0 -12 -7 -34 -16 -47 -10 -15 -18 -56 -21 -107 -3 -46 -10 -88
-15 -95 -5 -6 -11 -27 -13 -45 -2 -18 -11 -71 -19 -118 -8 -47 -12 -89 -9 -93
3 -4 0 -14 -6 -21 -6 -7 -11 -29 -10 -47 1 -53 -6 -113 -16 -128 -8 -14 -13
-62 -20 -216 -3 -44 -5 -80 -6 -80 -2 0 -9 -56 -8 -72 2 -190 -7 -593 -13
-593 -5 0 -9 19 -10 43 0 23 -2 74 -4 112 -8 184 7 692 26 850 5 44 16 141 25
215 25 214 26 218 40 274 8 29 16 75 19 102 3 27 10 90 15 139 6 50 14 104 20
120 21 66 30 102 36 152 4 29 11 55 16 59 5 3 9 25 9 48 0 26 6 48 15 56 7 6
17 33 20 58 4 26 12 63 19 82 23 62 37 104 47 140 6 19 16 49 23 65 7 17 23
62 36 100 12 39 26 80 31 93 5 13 9 31 9 41 0 10 9 26 20 36 11 10 22 33 26
51 3 19 14 44 24 57 10 12 25 47 34 77 9 29 25 63 36 75 22 23 70 113 70 131
0 6 7 18 17 25 9 8 22 28 30 44 40 84 143 225 164 225 5 0 13 -10 18 -23 19
-49 79 -126 176 -224 l101 -102 -28 -29 c-21 -21 -30 -41 -35 -82 l-6 -53 -24
29 c-12 16 -23 36 -23 45 0 9 -7 33 -16 54 -22 53 -36 33 -24 -37 9 -60 44
-124 80 -148 12 -8 28 -20 34 -26 39 -37 81 -42 137 -16 53 24 85 99 75 175
-4 28 -7 62 -6 75 0 31 -27 82 -44 82 -27 0 -167 102 -190 139 -13 20 -31 43
-41 51 -9 8 -37 44 -61 81 -24 37 -54 71 -66 75 -22 7 -22 7 -2 23 28 23 64
72 64 86 0 7 -10 23 -23 35 -22 21 -23 24 -10 79 30 127 46 217 43 226 -2 6
-5 84 -6 175 -3 289 -10 344 -46 355 -37 12 -40 -5 -29 -141 11 -129 3 -335
-18 -449 -28 -155 -53 -259 -66 -278 -8 -12 -15 -34 -15 -48 0 -15 -11 -41
-25 -57 -14 -17 -25 -34 -25 -39 0 -5 -20 -40 -45 -77 -25 -38 -45 -72 -45
-76 0 -4 -7 -13 -16 -20 -8 -8 -22 -27 -29 -44 -16 -35 -47 -89 -62 -108 -5
-7 -16 -29 -23 -48 -8 -19 -26 -52 -41 -73 -15 -21 -31 -53 -35 -70 -3 -18
-14 -48 -24 -67 -64 -126 -104 -234 -172 -465 -7 -22 -22 -62 -34 -90 -11 -27
-24 -70 -28 -94 -16 -105 -41 -100 -75 13 -12 41 -29 80 -36 86 -8 7 -25 36
-39 65 -21 46 -84 125 -153 189 -76 73 -171 109 -284 110 -68 0 -79 -3 -121
-32 -26 -18 -50 -32 -54 -32 -22 0 -117 -116 -153 -188 l-41 -82 -65 0 c-35 0
-67 5 -70 10 -11 18 5 49 35 67 16 9 34 28 40 42 6 15 24 44 40 66 48 63 91
154 111 235 20 75 20 191 3 359 l-6 54 108 -7 c77 -6 119 -13 147 -28 52 -26
159 -18 201 16 34 27 67 118 56 155 -4 14 -8 100 -9 191 -2 184 -9 221 -51
284 -34 50 -38 52 -127 66 -53 9 -74 8 -112 -4 -30 -10 -58 -13 -81 -8 -71 16
-206 -50 -314 -152 -32 -31 -62 -56 -66 -56 -19 0 -277 -300 -340 -395 -18
-27 -55 -80 -82 -116 -26 -37 -48 -70 -48 -75 0 -4 -13 -22 -29 -39 -35 -36
-73 -99 -132 -215 -24 -47 -56 -103 -71 -124 -15 -21 -28 -45 -28 -52 0 -8
-15 -46 -34 -86 -83 -175 -114 -389 -68 -474 12 -24 54 -54 74 -54 13 0 181
-111 228 -150 28 -24 92 -68 200 -139 41 -27 91 -62 110 -78 19 -16 69 -51
110 -78 41 -27 86 -60 100 -72 14 -13 30 -23 36 -23 6 0 17 -7 24 -15 7 -8 26
-15 44 -15 17 0 55 -15 86 -34 98 -59 166 -64 504 -40 93 7 171 -13 218 -55
l30 -26 -11 -80 c-13 -88 -27 -280 -39 -508 -9 -162 -7 -724 2 -852 25 -355
53 -631 66 -655 6 -10 10 -36 10 -57 0 -21 9 -87 20 -148 12 -60 25 -132 29
-160 5 -27 17 -79 26 -115 10 -36 19 -76 21 -90 4 -26 45 -175 62 -225 6 -16
16 -50 22 -75 6 -25 14 -54 16 -66 4 -13 -9 -45 -33 -87 -60 -106 -93 -171
-93 -186 0 -8 -7 -22 -15 -31 -24 -27 -66 -108 -198 -380 -110 -227 -160 -326
-173 -341 -8 -8 -19 -31 -26 -50 -6 -19 -21 -47 -33 -64 -24 -32 -137 -263
-150 -305 -4 -14 -13 -32 -20 -40 -7 -8 -36 -60 -64 -115 -28 -55 -57 -111
-65 -125 -8 -14 -28 -54 -44 -90 -50 -112 -103 -215 -134 -260 -9 -14 -22 -43
-28 -66 -11 -37 -16 -42 -66 -57 -30 -9 -63 -17 -72 -17 -10 0 -22 -4 -27 -8
-6 -5 -47 -17 -93 -27 -46 -10 -85 -22 -88 -27 -3 -4 -16 -8 -29 -8 -13 0 -37
-5 -52 -11 -15 -7 -44 -18 -63 -26 -19 -8 -42 -18 -50 -22 -23 -12 -35 -57
-24 -88 8 -24 20 -31 79 -47 164 -44 476 -64 489 -31 3 8 13 15 22 15 9 0 33
14 54 30 21 17 45 30 53 30 8 0 20 7 27 15 7 8 18 15 25 15 19 0 57 69 50 90
-4 11 12 51 40 103 25 46 45 91 45 99 0 9 6 21 14 27 8 7 40 61 70 122 30 60
64 121 75 136 49 70 92 147 98 173 3 16 16 39 29 51 13 12 24 26 24 30 0 13
65 114 102 160 21 25 44 62 53 82 8 19 19 38 25 42 6 3 26 30 45 58 62 92 154
221 175 247 12 14 43 52 69 86 26 33 63 77 82 96 19 20 56 61 83 92 56 63 54
64 91 -39 15 -38 32 -83 39 -100 8 -16 19 -50 26 -74 11 -40 14 -43 39 -38 21
4 30 0 41 -18 13 -20 47 -70 127 -185 33 -48 129 -156 226 -254 l97 -98 41 6
c23 4 46 2 53 -3 6 -5 40 -16 76 -25 117 -29 262 6 358 87 24 21 47 37 51 37
9 0 111 100 111 109 0 4 19 27 43 52 23 25 68 90 100 145 32 54 62 106 67 114
31 48 87 165 110 225 32 88 56 96 111 38 107 -112 137 -145 169 -188 19 -26
46 -60 60 -75 14 -15 31 -38 38 -51 7 -13 32 -51 57 -84 24 -33 57 -78 72
-100 15 -22 40 -55 55 -73 15 -18 28 -38 28 -45 0 -7 17 -34 38 -62 54 -71
112 -160 112 -172 0 -5 11 -20 25 -33 14 -13 30 -40 35 -60 5 -20 35 -74 65
-121 30 -46 78 -130 106 -186 28 -56 57 -107 65 -114 8 -6 14 -17 14 -24 0 -6
20 -51 45 -99 25 -49 45 -98 45 -109 0 -23 34 -86 54 -100 6 -4 -27 -4 -74 0
-141 13 -259 8 -346 -15 -43 -11 -131 -25 -194 -32 -165 -16 -182 -22 -140
-48 28 -17 179 -29 470 -37 134 -4 247 -8 250 -10 4 -2 68 -5 144 -7 129 -2
139 -1 155 18 14 18 32 22 136 27 138 8 300 40 327 64 37 33 9 123 -39 123
-13 0 -21 3 -81 33 -19 10 -38 14 -43 11 -6 -3 -20 1 -32 9 -12 8 -53 20 -92
27 -38 7 -79 17 -90 23 -11 6 -36 14 -55 18 -104 23 -100 21 -119 77 -10 28
-25 60 -33 70 -9 9 -25 37 -37 62 -12 25 -28 56 -36 70 -8 14 -28 57 -45 95
-16 39 -37 81 -45 95 -14 24 -28 50 -127 240 -24 47 -49 99 -56 115 -6 17 -17
41 -25 55 -8 14 -27 54 -43 89 -16 36 -41 82 -56 103 -16 21 -28 44 -28 52 0
7 -10 29 -23 48 -24 35 -99 180 -179 348 -99 208 -139 287 -171 340 -18 31
-43 83 -56 116 -12 33 -42 91 -67 128 -24 37 -44 71 -44 76 0 4 -10 20 -22 35
-20 25 -20 31 -9 69 16 54 51 221 55 266 2 19 8 53 14 75 28 105 41 164 47
215 3 30 10 69 15 85 5 17 16 98 25 180 21 190 34 292 41 330 3 17 7 68 10
115 5 110 19 264 33 365 6 44 13 213 17 375 10 535 9 511 32 561 25 53 79 94
144 108 49 11 149 1 308 -31 140 -28 272 -21 347 17 29 14 64 25 80 24 30 -2
116 32 128 50 3 7 46 30 93 53 48 22 101 51 117 63 17 12 39 25 50 29 17 6
106 55 247 136 25 14 66 37 197 110 30 17 64 30 76 30 12 0 40 16 63 35 33 29
43 45 51 88 20 98 -5 320 -48 421 -12 26 -21 55 -21 63 0 9 -13 43 -29 77 -16
34 -38 84 -49 111 -56 140 -87 207 -104 225 -10 11 -27 40 -38 65 -11 25 -32
65 -48 88 -15 23 -36 60 -46 82 -10 22 -42 77 -72 122 -30 44 -54 84 -54 88 0
11 -151 208 -189 247 -20 20 -59 60 -87 90 -101 104 -175 148 -253 148 -29 0
-64 6 -79 14 -38 19 -119 27 -172 16 -35 -6 -53 -18 -82 -51 -47 -54 -62 -107
-83 -279 -9 -74 -21 -151 -26 -171 -8 -26 -8 -51 0 -91 16 -74 47 -103 129
-119 55 -12 69 -11 110 3 33 11 70 15 122 12 41 -3 87 -5 103 -4 30 0 33 -10
18 -69 -44 -169 -50 -339 -15 -434 8 -23 20 -56 25 -74 11 -37 56 -120 70
-128 5 -4 9 -13 9 -22 0 -9 16 -33 36 -55 19 -22 33 -45 31 -51 -2 -7 -28 -13
-60 -15 -57 -3 -97 9 -97 30 0 6 -14 46 -30 87 -32 80 -82 143 -172 214 -59
48 -143 67 -215 48 -27 -7 -61 -15 -78 -18 -16 -3 -41 -14 -54 -24 -13 -11
-30 -19 -37 -19 -7 0 -29 -15 -47 -32 -19 -18 -58 -55 -86 -81 -28 -27 -60
-66 -71 -86 -10 -21 -25 -43 -33 -50 -8 -6 -41 -64 -72 -128 -51 -102 -59
-114 -70 -99 -7 9 -16 58 -19 109 -4 51 -15 139 -26 197 -21 120 -36 220 -45
300 -4 30 -13 78 -20 105 -8 28 -21 95 -31 150 -20 122 -51 243 -69 271 -7 11
-11 32 -8 46 3 14 -1 36 -7 49 -7 12 -19 50 -27 83 -15 67 -73 221 -103 278
-11 20 -20 43 -20 51 0 8 -11 35 -25 61 -14 26 -25 51 -25 57 0 5 -21 43 -46
85 l-46 76 24 44 c22 43 178 231 203 246 7 4 58 53 115 108 56 55 134 123 174
150 39 26 85 61 103 77 17 15 55 42 84 58 29 17 68 45 87 63 19 18 43 37 54
43 27 14 58 69 58 102 0 15 -3 26 -7 25 -5 -1 -34 -28 -66 -60z m-3225 -755
c43 -39 48 -64 48 -242 0 -100 4 -180 11 -194 13 -28 0 -87 -21 -97 -51 -24
-82 -28 -115 -14 -35 14 -65 57 -65 94 0 18 4 20 39 14 34 -5 43 -3 66 20 22
22 25 31 19 63 -9 52 -31 75 -69 71 -30 -3 -30 -3 -33 50 -3 59 -17 72 -57 54
-16 -7 -28 -25 -35 -51 -10 -39 -12 -40 -43 -34 -35 7 -97 41 -97 53 0 12 -57
33 -69 25 -21 -13 -10 -35 39 -77 l50 -43 -35 -35 c-18 -19 -37 -48 -41 -65
-4 -16 -11 -36 -17 -43 -20 -25 -26 -127 -15 -247 6 -66 11 -145 11 -175 -1
-69 -36 -196 -63 -225 -11 -12 -20 -26 -20 -32 0 -18 -90 -146 -138 -195 -25
-26 -51 -44 -58 -41 -9 3 -14 -2 -14 -14 0 -11 -10 -25 -22 -32 -77 -41 -98
-58 -98 -82 0 -39 66 -32 133 14 27 18 28 18 70 -2 24 -12 59 -21 79 -21 43 0
54 -12 63 -70 10 -63 26 -90 92 -157 59 -59 190 -153 215 -153 7 0 25 -7 40
-14 16 -8 67 -22 115 -31 86 -17 89 -16 135 5 34 15 50 28 54 46 10 39 -13 56
-56 44 -58 -17 -108 -13 -120 9 -16 32 -13 43 10 29 27 -17 54 0 58 36 l3 26
27 -18 c41 -29 110 -43 157 -32 62 15 63 14 96 -57 37 -79 35 -77 48 -69 13 8
-4 58 -36 105 -13 19 -22 42 -21 50 1 9 -2 23 -7 31 -14 21 -35 82 -35 102 0
31 -71 153 -110 189 -22 20 -40 39 -40 42 0 23 -125 117 -155 117 -26 0 -16
-16 22 -36 20 -10 45 -23 55 -29 10 -5 18 -13 18 -17 0 -5 9 -17 19 -27 81
-81 131 -144 131 -165 0 -13 9 -35 21 -50 12 -15 18 -34 15 -43 -4 -8 -2 -21
3 -27 13 -16 24 -83 14 -89 -4 -3 -32 -8 -61 -11 -65 -7 -117 16 -158 69 -32
42 -49 46 -39 8 11 -42 13 -83 4 -89 -15 -9 -66 25 -101 66 -35 40 -58 51 -58
27 0 -7 23 -36 50 -66 53 -57 60 -71 35 -71 -8 0 -15 7 -15 15 0 8 -6 15 -14
15 -7 0 -24 14 -37 32 -13 17 -34 43 -46 57 -12 14 -49 60 -81 101 -49 63 -64
75 -90 77 -18 1 -32 0 -32 -3 0 -2 12 -23 28 -46 15 -23 34 -53 43 -67 9 -14
33 -44 53 -66 39 -42 61 -75 50 -75 -8 0 -61 38 -88 64 -12 11 -31 29 -42 38
-10 10 -29 28 -40 40 -40 43 -47 128 -16 181 10 17 30 61 43 97 13 36 35 75
49 87 88 79 133 113 156 119 42 11 133 -5 192 -33 72 -34 182 -146 224 -228
17 -33 35 -66 41 -73 15 -19 67 -170 85 -249 14 -62 14 -81 3 -135 -19 -93
-36 -128 -62 -128 -12 0 -38 -10 -58 -22 -31 -20 -50 -23 -133 -23 -97 0 -125
-13 -59 -26 39 -8 52 -19 22 -19 -26 0 -40 -28 -20 -42 11 -8 10 -9 -3 -4 -10
3 -18 1 -18 -3 0 -20 -232 -81 -303 -79 -17 0 -38 -8 -49 -20 l-21 -21 30 -30
31 -30 -49 3 c-27 2 -72 15 -101 28 -29 14 -61 28 -70 31 -33 11 -20 26 13 17
43 -13 52 -4 32 31 -18 30 -29 36 -35 19 -2 -7 -14 -5 -33 4 -17 8 -52 25 -80
37 -42 19 -46 23 -27 27 37 6 38 31 4 63 -17 16 -35 29 -41 29 -6 0 -19 10
-31 22 -11 12 -20 18 -20 13 0 -5 -10 1 -22 12 -13 11 -69 45 -125 74 -144 76
-141 74 -161 92 -10 10 -24 17 -31 17 -6 0 -24 9 -39 19 -15 11 -42 22 -60 26
-29 6 -33 4 -30 -11 2 -10 19 -32 38 -49 54 -46 63 -56 58 -60 -4 -4 -120 75
-153 104 -11 10 -36 26 -55 36 -19 10 -45 26 -56 37 -12 11 -37 27 -55 36 -25
13 -35 25 -38 47 -7 67 47 294 88 370 16 28 31 64 35 80 4 17 13 37 20 45 14
16 51 81 100 174 17 33 38 72 46 87 18 32 73 110 154 217 32 42 66 93 76 113
10 19 34 48 52 65 19 16 45 45 58 64 40 57 89 112 185 209 63 63 216 174 274
198 23 10 52 13 85 9 28 -2 71 -1 96 4 59 11 108 5 132 -17z m-197 -350 c-14
-35 -35 -135 -30 -143 3 -5 1 -12 -5 -15 -15 -10 -43 64 -36 97 3 16 18 40 33
53 33 29 48 32 38 8z m3921 -49 c29 -10 60 -13 81 -9 56 10 125 -31 240 -143
56 -55 108 -113 116 -128 9 -16 30 -44 47 -62 18 -18 40 -45 49 -60 9 -15 25
-42 36 -61 11 -18 37 -56 58 -83 21 -27 47 -68 58 -91 11 -23 35 -67 54 -97
47 -77 93 -162 147 -273 28 -57 77 -199 72 -210 -10 -27 48 -261 71 -287 25
-28 46 -89 39 -116 -4 -14 -1 -36 6 -49 15 -28 6 -108 -15 -125 -8 -6 -23 -9
-33 -5 -13 3 -39 -6 -73 -26 -30 -17 -56 -31 -59 -31 -3 0 -20 -6 -38 -14 -18
-7 -39 -11 -46 -8 -8 3 -33 -3 -57 -14 -24 -10 -62 -24 -84 -30 -22 -6 -67
-20 -99 -32 -32 -12 -77 -23 -100 -25 -63 -5 -120 -17 -133 -27 -6 -5 -26 -10
-45 -11 -18 -2 -42 -8 -53 -14 -11 -5 -47 -18 -80 -27 -33 -10 -85 -28 -115
-41 -30 -13 -73 -29 -95 -36 -22 -6 -44 -15 -50 -19 -5 -5 -21 -10 -35 -12
-17 -2 -26 -10 -28 -25 -3 -20 1 -23 30 -23 18 0 57 11 86 25 30 14 66 25 81
25 31 0 52 17 44 36 -3 8 5 15 24 19 15 3 36 10 45 15 16 9 196 57 248 67 24
4 24 4 6 -11 -11 -9 -36 -19 -55 -22 -20 -4 -45 -11 -56 -17 -10 -5 -40 -16
-65 -23 -109 -31 -139 -48 -140 -81 0 -22 92 -9 110 15 22 30 364 130 376 110
3 -4 -3 -11 -13 -15 -10 -3 -50 -26 -90 -50 -81 -49 -163 -85 -244 -107 -31
-9 -62 -23 -69 -31 -7 -8 -20 -15 -29 -15 -9 0 -21 -4 -26 -9 -19 -17 -161
-59 -210 -62 -83 -4 -113 0 -119 16 -5 13 5 15 74 9 68 -6 80 -5 80 8 0 19
-12 24 -69 27 -24 1 -57 9 -72 16 -15 8 -35 15 -44 15 -8 0 -15 5 -15 10 0 6
10 10 22 10 33 0 14 11 -20 12 -17 1 -30 6 -29 11 3 15 -61 27 -67 13 -3 -7
-8 -7 -14 3 -5 7 -15 10 -21 7 -6 -4 -11 -3 -11 2 0 5 -15 15 -32 22 -88 32
-165 79 -153 92 10 10 -71 83 -94 85 -26 2 -71 39 -71 59 0 6 -7 17 -15 24
-21 17 -19 75 4 119 10 20 26 56 36 81 9 25 34 81 55 125 21 44 40 85 42 90 2
6 29 46 60 90 57 80 129 150 203 197 67 42 209 62 258 37 44 -23 165 -158 172
-192 8 -37 22 -86 41 -140 8 -20 14 -51 14 -68 0 -26 -3 -29 -20 -24 -22 7
-24 2 -11 -23 11 -21 -4 -62 -23 -62 -7 0 -16 -6 -19 -14 -8 -21 -120 -93
-173 -111 -53 -18 -54 -18 -54 -5 0 6 7 10 15 10 8 0 28 12 44 28 36 33 46 40
91 72 65 45 69 52 66 100 -2 25 -7 58 -11 73 -4 16 -2 47 5 74 12 40 11 46 -3
55 -12 6 -15 16 -11 34 4 17 2 24 -8 24 -8 0 -24 13 -35 29 -23 30 -102 81
-127 81 -39 0 -37 -61 4 -105 10 -11 32 -55 49 -98 l31 -78 -19 -44 c-29 -65
-111 -115 -189 -115 -31 0 -74 -5 -95 -11 -30 -8 -43 -7 -66 7 -17 10 -36 14
-47 10 -16 -6 -13 -10 16 -23 19 -8 48 -22 64 -30 19 -11 42 -14 71 -10 40 6
43 4 49 -19 6 -24 10 -25 46 -19 47 8 53 -2 10 -16 -23 -8 -30 -17 -30 -36 0
-25 -1 -25 -67 -20 -38 3 -80 10 -95 17 -49 23 -80 -27 -39 -64 40 -36 207
-39 333 -6 76 21 179 83 248 150 64 63 69 71 96 168 2 7 21 12 47 12 24 0 65
6 90 14 36 11 49 11 56 2 6 -7 32 -24 58 -38 36 -19 54 -24 71 -17 12 4 22 11
22 13 0 17 -26 56 -39 61 -30 10 -71 54 -71 76 0 14 -5 19 -14 16 -8 -3 -20 1
-26 9 -10 11 -8 17 10 32 l22 18 -20 39 c-12 22 -27 51 -34 65 -7 14 -18 29
-25 33 -20 12 -15 26 7 20 29 -8 25 20 -27 177 -8 25 -17 60 -20 78 -3 18 -9
35 -14 38 -5 3 -9 18 -9 34 0 16 -5 32 -11 35 -6 4 -8 13 -5 21 3 8 -1 14 -9
14 -8 0 -15 6 -15 13 0 6 -3 23 -7 36 -3 14 -2 22 3 19 13 -8 8 226 -5 251 -6
11 -11 31 -11 44 0 13 -14 44 -31 67 l-32 44 24 15 c54 36 82 68 76 85 -9 23
-56 14 -76 -14 -7 -11 -22 -20 -32 -20 -10 0 -21 -4 -24 -10 -3 -5 -23 -10
-44 -10 -36 0 -39 2 -44 36 -8 45 -23 64 -53 64 -16 0 -24 -6 -24 -17 0 -10
-5 -35 -11 -56 -9 -32 -12 -36 -29 -27 -20 10 -63 0 -74 -19 -3 -5 -9 -29 -12
-54 -5 -38 -3 -47 17 -66 18 -17 32 -21 57 -17 29 4 32 3 32 -22 -1 -58 -72
-99 -133 -78 -53 18 -67 34 -67 77 0 21 4 40 9 43 4 3 12 47 17 98 4 51 9 100
11 108 1 8 6 47 11 85 9 79 20 104 58 134 32 25 85 27 150 5z m49 -381 c30
-34 33 -91 7 -123 -17 -21 -17 -20 -20 42 -2 35 -8 67 -13 73 -10 10 -12 35
-4 35 3 0 17 -12 30 -27z m-2821 -8 c3 -8 1 -15 -4 -15 -6 0 -10 7 -10 15 0 8
2 15 4 15 2 0 6 -7 10 -15z m580 -27 c12 -34 -9 -88 -35 -88 -20 0 -32 30 -31
74 1 51 49 61 66 14z m1080 -14 c3 -9 6 -23 6 -31 0 -13 -3 -13 -15 -3 -16 13
-21 50 -6 50 5 0 12 -7 15 -16z m20 -80 c8 -29 3 -39 -13 -29 -13 8 -15 55 -2
55 5 0 12 -12 15 -26z m-1669 6 c-3 -5 -11 -10 -16 -10 -6 0 -7 5 -4 10 3 6
11 10 16 10 6 0 7 -4 4 -10z m1714 -155 c12 -54 9 -89 -5 -49 -3 10 -12 33
-20 51 -13 30 -10 68 5 58 4 -2 13 -29 20 -60z m-1805 -51 c4 -9 4 -19 1 -22
-3 -3 -5 0 -5 6 0 6 -7 9 -15 6 -15 -6 -21 7 -8 19 11 11 21 8 27 -9z m-37
-56 c-3 -8 -6 -5 -6 6 -1 11 2 17 5 13 3 -3 4 -12 1 -19z m3 -27 c0 -5 -4 -11
-9 -13 -6 -1 -13 -19 -16 -38 -3 -19 -15 -44 -27 -55 l-20 -20 10 20 c6 11 18
41 28 68 15 42 34 63 34 38z m3198 -353 c24 -54 12 -67 -13 -14 -9 18 -25 43
-37 55 -11 12 -17 25 -14 28 3 3 -1 15 -9 27 -8 11 -15 30 -15 43 0 12 -4 24
-9 27 -7 5 -8 47 -1 151 1 11 18 -45 39 -125 21 -80 48 -166 59 -192z m-18
-49 c0 -10 30 -56 61 -94 19 -24 31 -65 18 -65 -5 0 -9 6 -9 13 0 7 -8 22 -17
33 -35 38 -60 79 -67 107 -4 19 -3 26 4 22 5 -3 10 -11 10 -16z m-4262 -61
c16 -16 15 -29 -2 -22 -16 6 -30 34 -18 34 5 0 13 -5 20 -12z m4972 -29 c0
-11 -4 -17 -10 -14 -5 3 -10 15 -10 26 0 11 5 17 10 14 6 -3 10 -15 10 -26z
m-4936 -25 c18 -17 22 -39 6 -29 -11 7 -33 45 -26 45 2 0 12 -7 20 -16z m4961
-66 c28 -59 35 -123 11 -98 -11 13 -46 121 -46 143 0 19 13 2 35 -45z m-5731
-76 c23 -15 57 -35 76 -45 19 -10 42 -22 50 -27 8 -5 41 -24 73 -42 32 -18 69
-40 81 -48 12 -8 38 -25 57 -37 60 -40 11 -25 -84 26 -106 55 -208 116 -246
147 -14 12 -36 24 -47 28 -12 4 -30 16 -40 27 -18 20 -18 20 11 9 15 -6 47
-23 69 -38z m4574 -260 c-10 -2 -18 -7 -18 -12 0 -5 -9 -14 -20 -20 -15 -8
-20 -8 -20 2 0 16 51 47 65 39 6 -3 2 -7 -7 -9z m-2223 -41 c19 -2 19 -2 2
-12 -10 -6 -61 -10 -115 -9 -53 1 -112 2 -131 2 -46 -1 -27 16 24 21 34 3 152
2 220 -2z m94 -10 c9 -5 55 -14 101 -21 47 -6 110 -18 140 -27 127 -37 197
-62 237 -85 l41 -24 -29 -16 c-16 -10 -29 -25 -29 -34 0 -24 29 -54 52 -54 15
0 17 -3 8 -19 -5 -11 -10 -28 -10 -39 0 -12 -9 -22 -21 -25 -31 -8 -21 -41 14
-45 15 -2 27 -6 27 -10 0 -9 -383 -4 -445 6 -74 12 -120 42 -110 71 9 25 -14
41 -43 30 -19 -7 -33 -7 -49 2 -29 15 -29 33 -2 53 14 9 21 26 22 49 1 34 1
35 39 29 24 -3 38 -1 38 6 0 13 -44 27 -57 19 -5 -3 -15 -2 -23 3 -12 7 -12
11 1 27 9 10 19 26 23 37 4 12 12 16 22 12 17 -6 44 9 44 25 0 4 -12 9 -27 11
-36 4 -43 28 -8 28 14 0 34 -4 44 -9z m-254 -42 c15 -6 10 -8 -21 -8 -53 -1
-105 9 -99 19 5 9 90 1 120 -11z m-291 -4 c3 -8 18 -15 33 -15 31 0 117 -41
148 -71 19 -18 19 -19 1 -19 -11 0 -27 6 -35 14 -33 28 -111 68 -106 54 3 -8
24 -25 46 -39 23 -13 70 -45 105 -71 70 -53 74 -55 74 -33 0 21 17 19 51 -6
21 -15 28 -26 24 -39 -4 -12 2 -24 16 -34 13 -9 20 -19 16 -23 -4 -3 -13 -1
-19 5 -7 7 -19 12 -28 12 -8 0 -33 16 -55 35 -22 19 -43 35 -47 35 -4 0 -13 6
-20 13 -28 25 -97 77 -104 77 -4 0 -31 18 -59 40 -29 22 -59 38 -66 35 -9 -3
-14 3 -15 20 -1 18 3 25 16 25 10 0 20 -7 24 -15z m2581 -5 c3 -5 -3 -10 -15
-10 -12 0 -18 5 -15 10 3 6 10 10 15 10 5 0 12 -4 15 -10z m-3995 -10 c0 -5
-2 -10 -4 -10 -3 0 -8 5 -11 10 -3 6 -1 10 4 10 6 0 11 -4 11 -10z m1610 -20
c0 -5 -4 -10 -10 -10 -5 0 -10 5 -10 10 0 6 5 10 10 10 6 0 10 -4 10 -10z
m160 1 c0 -9 -36 -30 -52 -31 -11 0 -15 -5 -12 -15 5 -11 -1 -15 -22 -15 -27
0 -27 1 -8 15 18 14 18 16 2 26 -33 19 -19 29 37 26 30 -1 55 -4 55 -6z m-350
-26 c10 -12 10 -15 -4 -15 -9 0 -16 7 -16 15 0 8 2 15 4 15 2 0 9 -7 16 -15z
m-4 -74 c90 -85 234 -176 303 -194 25 -6 53 -17 62 -24 8 -7 24 -13 35 -13 10
0 28 -7 38 -15 11 -8 41 -15 67 -15 46 0 73 -13 47 -23 -7 -3 12 -4 42 -3 30
0 102 0 160 -2 58 -1 112 -2 120 -2 8 1 49 -1 90 -4 41 -2 122 -7 180 -11 145
-8 301 -42 381 -81 37 -18 77 -36 91 -39 14 -4 63 -42 109 -85 46 -44 89 -79
95 -80 14 0 119 -130 126 -156 3 -11 1 -133 -3 -270 -15 -448 -26 -635 -39
-713 -6 -30 -10 -77 -10 -104 0 -42 -2 -48 -15 -37 -8 7 -26 36 -41 66 -15 30
-42 73 -60 97 -19 23 -34 45 -34 49 0 20 -241 244 -280 261 -14 6 -45 26 -69
44 -24 18 -50 33 -57 33 -7 0 -19 6 -26 13 -25 23 -240 157 -253 157 -2 0 -24
14 -49 30 -24 17 -62 37 -83 46 -21 9 -60 26 -88 40 -27 13 -79 30 -115 39
-36 8 -81 20 -100 26 -62 21 -428 10 -457 -13 -7 -5 -21 -7 -32 -3 -27 8 -35
56 -27 153 4 42 9 127 12 187 2 61 7 122 10 138 3 15 2 27 -3 27 -19 0 -34
-124 -37 -308 -2 -106 -6 -195 -9 -198 -15 -16 -182 -32 -195 -19 -2 2 1 28 9
57 7 29 12 58 12 65 0 7 4 10 9 7 4 -3 8 7 8 21 0 14 4 31 10 38 47 58 60 77
65 100 9 34 -1 77 -18 77 -7 0 -21 10 -31 22 -15 17 -16 25 -7 40 8 13 8 18 0
18 -8 0 -10 27 -5 90 5 83 4 91 -12 88 -9 -2 -17 3 -16 10 1 6 2 41 3 76 l1
65 32 -10 c42 -12 131 -12 124 0 -3 5 -39 12 -80 16 l-75 7 5 96 c3 64 1 92
-5 82 -6 -8 -11 -12 -13 -10 -29 38 -28 127 0 127 10 0 53 -34 98 -76z m107
-7 c7 -6 23 -17 35 -23 22 -12 30 -31 12 -31 -12 0 -100 83 -100 95 0 5 9 0
20 -11 10 -10 25 -24 33 -30z m254 -19 c1 -11 5 -32 9 -47 4 -19 2 -28 -6 -28
-7 0 -9 8 -5 19 4 13 -2 25 -20 39 -31 25 -32 44 -2 40 13 -2 23 -11 24 -23z
m3138 -5 c-3 -5 -16 -10 -28 -10 -18 0 -19 2 -7 10 20 13 43 13 35 0z m-1475
-16 c0 -8 -4 -12 -10 -9 -5 3 -10 10 -10 16 0 5 5 9 10 9 6 0 10 -7 10 -16z
m1380 -14 c0 -5 -5 -10 -11 -10 -5 0 -7 5 -4 10 3 6 8 10 11 10 2 0 4 -4 4
-10z m-3195 -20 c3 -5 2 -10 -4 -10 -5 0 -13 5 -16 10 -3 6 -2 10 4 10 5 0 13
-4 16 -10z m996 -135 c18 0 34 -5 36 -11 5 -14 -54 -22 -109 -15 -45 6 -65 31
-26 31 13 0 30 4 38 10 9 6 17 5 22 -3 4 -7 22 -12 39 -12z m-1291 -305 c0 -5
-5 -10 -11 -10 -5 0 -7 5 -4 10 3 6 8 10 11 10 2 0 4 -4 4 -10z m-418 -213 c3
-72 -5 -88 -17 -34 -12 50 -13 81 -2 95 14 18 15 14 19 -61z m445 -49 c-3 -7
-5 -2 -5 12 0 14 2 19 5 13 2 -7 2 -19 0 -25z m-460 -107 c-15 -6 -18 7 -10
45 l7 39 6 -40 c3 -22 1 -42 -3 -44z m18 -90 c2 -32 5 -64 9 -69 3 -6 2 -13
-3 -16 -13 -8 -5 -389 9 -431 6 -20 13 -102 15 -183 4 -178 2 -162 20 -162 8
0 15 -4 15 -10 0 -5 -7 -7 -16 -3 -15 5 -16 -7 -11 -123 7 -150 16 -224 28
-224 5 0 10 27 10 60 1 33 2 66 3 73 1 6 -1 17 -5 22 -7 10 -12 56 -10 85 1
13 3 13 11 -1 14 -24 62 -257 65 -314 4 -76 4 -77 16 -70 6 4 7 19 4 36 -4 18
-3 29 4 29 6 0 11 -8 11 -17 0 -10 7 -31 15 -46 13 -26 27 -105 27 -149 -1
-10 4 -18 10 -18 5 0 7 -8 4 -17 -4 -9 -2 -19 4 -23 12 -8 -7 -60 -22 -60 -4
0 -8 -6 -8 -14 0 -18 -50 -79 -59 -71 -3 4 -7 21 -7 38 -1 18 -9 75 -18 127
-16 97 -23 153 -31 249 -3 30 -10 60 -16 65 -7 8 -8 -10 -3 -59 13 -138 15
-161 20 -227 3 -38 9 -68 13 -68 4 0 6 -13 3 -30 -3 -19 0 -30 8 -30 7 0 10
-7 6 -17 -6 -14 0 -61 20 -151 3 -16 1 -23 -7 -20 -7 2 -14 15 -15 29 -8 63
-23 128 -39 169 -19 49 -36 159 -35 228 0 24 -4 52 -10 62 -11 20 -14 68 -25
380 -3 91 -10 181 -16 201 -5 20 -6 44 -3 53 3 9 3 24 -2 34 -4 9 -9 100 -11
202 -2 102 -4 192 -5 200 0 8 1 93 1 189 1 129 5 171 13 163 6 -6 12 -38 13
-71z m850 -44 c122 1 381 -43 340 -57 -11 -4 -39 -2 -65 3 -59 13 -395 10
-420 -3 -40 -22 -96 -7 -84 23 4 12 18 17 48 18 22 0 57 6 76 14 19 7 46 11
60 8 14 -4 34 -6 45 -6z m-247 -49 c-3 -21 -9 -23 -64 -24 -33 0 -65 -4 -72
-8 -13 -8 -57 12 -48 21 7 7 128 30 164 32 19 1 23 -3 20 -21z m391 -57 c87
-8 107 -13 120 -30 22 -28 76 -38 99 -18 16 14 22 14 67 0 81 -24 105 -35 105
-45 0 -5 -10 -8 -22 -7 -13 2 -29 0 -36 -5 -8 -5 -18 -4 -25 3 -6 6 -35 11
-64 11 -45 0 -57 -4 -83 -30 -26 -26 -46 -35 -82 -39 -12 -2 -49 -71 -43 -81
10 -16 30 -12 50 10 17 19 18 19 51 -8 18 -14 35 -36 38 -48 4 -16 11 -21 26
-17 11 3 20 9 20 14 0 10 31 12 54 3 30 -11 16 -23 -34 -30 -27 -4 -50 -12
-50 -18 0 -6 -5 -4 -10 4 -8 13 -13 13 -31 2 -11 -8 -18 -9 -14 -3 3 6 -1 11
-10 11 -9 0 -14 4 -10 9 3 6 -2 14 -12 19 -22 12 -61 -2 -69 -23 -4 -10 -20
-15 -48 -16 -35 -1 -37 -2 -16 -9 22 -7 23 -8 4 -9 -12 -1 -27 6 -34 14 -7 8
-17 15 -22 15 -6 0 -8 -7 -4 -15 6 -17 -9 -21 -19 -5 -3 6 -16 10 -28 10 -27
0 -107 29 -128 47 -8 7 -23 13 -32 13 -9 0 -19 5 -23 11 -3 6 -25 20 -48 31
-92 44 -257 152 -274 179 -19 30 3 43 85 48 143 11 447 11 552 2z m-545 -216
c15 -19 24 -40 21 -45 -3 -6 1 -10 10 -10 9 0 13 5 10 10 -3 6 -1 10 4 10 6 0
11 -9 11 -21 0 -12 4 -18 11 -13 6 3 14 3 18 -2 3 -5 16 -14 28 -21 17 -10 23
-10 27 0 3 9 7 9 13 -1 13 -17 150 -82 174 -82 10 0 33 -9 51 -20 18 -11 49
-20 69 -20 19 0 40 -5 46 -11 15 -15 155 -22 363 -18 91 1 201 2 245 1 44 -1
98 -2 120 -2 41 0 95 -13 250 -57 81 -24 100 -31 142 -52 6 -3 46 -34 90 -68
43 -35 91 -73 107 -85 16 -12 39 -45 52 -72 13 -28 33 -63 45 -78 21 -26 21
-27 5 -110 -9 -45 -18 -117 -21 -159 -2 -42 -8 -87 -13 -100 -5 -13 -10 -28
-10 -34 -2 -37 -25 -187 -34 -220 -19 -73 -38 -170 -38 -197 0 -36 -16 -36
-25 -1 -3 15 -15 45 -27 67 -22 44 -27 151 -8 170 13 13 13 66 0 66 -6 0 -6 9
0 25 5 14 7 25 5 25 -3 0 2 12 12 27 13 19 14 28 5 31 -7 2 -10 13 -6 28 4 14
1 31 -6 39 -7 8 -8 15 -3 15 12 0 25 83 17 105 -5 12 -9 13 -20 4 -16 -13 -15
-17 -18 108 -1 52 -6 77 -17 88 -15 15 -17 8 -18 -97 -3 -202 -10 -256 -32
-243 -13 9 -11 -39 3 -53 6 -6 9 -15 5 -18 -3 -4 -19 9 -34 27 -15 19 -46 54
-68 79 -23 25 -54 65 -70 90 -15 25 -30 40 -32 33 -2 -6 7 -30 21 -52 14 -22
26 -43 26 -47 0 -3 16 -22 36 -42 59 -61 125 -152 119 -163 -4 -5 -1 -16 5
-24 9 -11 9 -15 1 -15 -6 0 -16 11 -21 25 -5 14 -14 25 -19 25 -5 0 -11 10
-13 22 -2 12 -9 23 -17 26 -16 5 -9 -20 26 -95 20 -42 24 -68 24 -135 0 -46
-4 -103 -9 -127 -6 -25 -8 -51 -5 -58 3 -7 0 -20 -7 -28 -6 -8 -9 -18 -7 -22
3 -5 2 -42 -1 -83 l-7 -75 -17 35 c-9 19 -28 52 -42 73 -14 21 -26 43 -26 48
0 6 -23 36 -51 67 -28 32 -57 69 -65 85 -15 27 -87 99 -129 127 -12 8 -58 40
-101 70 -44 30 -106 69 -139 85 -33 17 -71 38 -85 47 -14 9 -41 19 -60 23 -19
4 -60 15 -90 25 -85 28 -257 53 -365 53 -70 0 -123 -8 -185 -28 -25 -8 -60
-17 -78 -19 -18 -2 -41 -11 -51 -20 -9 -9 -27 -16 -39 -16 -12 0 -30 -4 -40
-9 -51 -26 -73 -34 -79 -28 -3 4 -12 2 -20 -4 -19 -17 -16 -1 8 32 11 16 25
27 30 23 5 -3 8 -2 7 3 -1 4 2 17 8 28 5 11 10 57 10 102 -1 46 2 83 7 83 4 0
7 7 7 15 0 8 9 20 20 27 11 7 20 18 20 25 0 6 5 13 12 15 7 3 9 14 4 31 -5 20
-13 27 -30 27 -29 0 -36 20 -36 115 0 39 -7 97 -15 130 -8 33 -15 83 -15 112
0 28 -4 63 -9 76 -6 14 -13 76 -17 139 -4 63 -13 125 -21 141 -13 26 -12 27
11 27 15 0 33 -12 50 -35z m820 -16 c-2 -4 15 -12 38 -17 40 -9 38 -10 -29 -9
-40 1 -73 5 -73 10 0 4 7 7 15 7 8 0 15 4 15 9 0 6 9 9 19 8 11 0 18 -4 15 -8z
m-247 -115 c-3 -3 -12 -4 -19 -1 -8 3 -5 6 6 6 11 1 17 -2 13 -5z m464 -10
c10 -13 10 -17 -2 -25 -35 -22 -57 -5 -36 29 11 16 22 15 38 -4z m-1561 -71
c0 -41 -3 -54 -11 -46 -10 10 -3 103 7 103 2 0 4 -26 4 -57z m9 -135 c-1 -42
-1 -42 -10 -13 -5 17 -7 36 -4 43 9 24 15 11 14 -30z m128 -70 c-3 -8 -6 -5
-6 6 -1 11 2 17 5 13 3 -3 4 -12 1 -19z m-108 -79 c1 -46 -2 -68 -9 -64 -6 4
-8 10 -5 15 3 5 0 29 -6 54 -11 46 -7 82 10 72 5 -3 9 -38 10 -77z m121 -69
c0 -16 -4 -30 -9 -30 -5 0 -8 8 -6 18 2 9 4 23 4 30 2 26 11 11 11 -18z m-110
-51 c0 -5 -4 -9 -10 -9 -5 0 -10 7 -10 16 0 8 5 12 10 9 6 -3 10 -10 10 -16z
m890 -449 c0 -5 -9 -10 -21 -10 -11 0 -17 5 -14 10 3 6 13 10 21 10 8 0 14 -4
14 -10z m-70 -8 c0 -8 -79 -35 -135 -47 -16 -4 -48 -15 -72 -26 -23 -10 -48
-19 -56 -19 -17 0 -78 -29 -94 -46 -7 -7 -22 -10 -33 -7 -21 6 -21 6 5 33 46
48 385 147 385 112z m346 -87 c43 -14 90 -32 104 -39 l24 -14 -38 -16 c-21 -9
-49 -16 -63 -16 -30 0 -65 -17 -78 -39 -10 -16 -12 -22 -14 -53 -1 -15 -5 -15
-53 -1 -79 22 -121 33 -142 38 -28 7 -30 12 -7 20 14 4 21 15 21 31 0 13 -4
24 -8 24 -5 0 -14 11 -20 24 -25 56 -93 27 -83 -36 0 -5 -6 -8 -14 -8 -7 0
-18 -8 -24 -17 -7 -14 -21 -17 -68 -15 -32 1 -83 2 -113 3 -44 1 -50 3 -31 10
18 7 22 14 17 32 -6 26 7 32 163 72 51 13 96 27 100 31 3 3 60 4 127 1 90 -5
141 -13 200 -32z m194 -90 c7 -9 8 -15 2 -15 -5 0 -12 7 -16 15 -3 8 -4 15 -2
15 2 0 9 -7 16 -15z m-889 -20 c0 -6 -10 -12 -23 -13 -19 -4 -20 -2 -9 12 15
17 33 18 32 1z m304 -105 c106 -10 170 -23 220 -45 21 -8 48 -15 61 -15 13 0
53 -14 90 -31 37 -16 80 -33 97 -36 16 -3 51 -18 76 -32 39 -22 43 -26 24 -29
-33 -5 -31 -45 2 -60 48 -22 113 -77 134 -112 11 -20 40 -56 66 -80 89 -88
189 -279 189 -364 0 -36 -15 -58 -46 -68 -5 -2 -10 -18 -11 -36 -2 -25 -16
-47 -66 -97 -34 -36 -67 -65 -72 -65 -5 0 -9 -7 -9 -15 0 -8 -10 -25 -22 -39
-13 -13 -29 -32 -36 -41 -13 -15 -16 -15 -31 -1 -18 17 -51 22 -51 9 0 -5 -4
-14 -9 -22 -8 -12 -12 -13 -26 -1 -27 22 -39 -1 -21 -43 14 -36 14 -36 -13
-42 -37 -8 -69 6 -111 50 -30 31 -40 35 -67 30 -26 -5 -38 1 -80 36 -78 66
-113 111 -113 144 0 8 -4 15 -8 15 -14 0 -42 74 -48 126 -6 52 -42 144 -56
144 -4 0 -6 17 -3 38 6 34 3 39 -29 61 -20 13 -43 21 -52 17 -10 -4 -14 -1
-12 6 3 7 -5 20 -16 29 -20 16 -20 18 -3 36 22 26 22 40 -4 53 -38 21 -57 43
-51 58 4 11 2 13 -8 7 -10 -6 -11 -3 -6 16 19 60 18 76 -5 98 -12 11 -20 24
-16 27 12 12 -14 34 -39 34 -20 0 -24 5 -24 30 0 17 -6 33 -13 36 -8 3 -12 20
-10 49 1 25 -2 45 -7 45 -6 0 -10 8 -10 18 0 9 -10 22 -22 27 -13 6 -24 18
-26 27 -6 29 58 31 293 8z m1445 -86 c7 -20 18 -48 26 -62 19 -38 18 -61 -10
-139 -14 -37 -29 -96 -35 -131 -5 -34 -17 -72 -25 -84 -9 -12 -16 -35 -16 -49
0 -15 -3 -35 -6 -44 -5 -13 -9 -10 -21 12 -17 34 -15 51 27 168 30 84 32 100
34 232 0 77 4 139 8 137 3 -2 12 -20 18 -40z m-1950 16 c-11 -21 -5 -44 10
-35 5 3 12 -16 15 -42 3 -27 8 -59 11 -73 5 -24 5 -25 -11 -5 -15 19 -16 19
-11 -10 18 -98 18 -125 2 -119 -19 7 -19 5 -1 -69 14 -61 31 -91 46 -81 16 9
10 -8 -7 -20 -13 -10 -14 -18 -3 -59 14 -58 6 -73 -11 -20 -7 21 -16 43 -21
48 -4 6 -13 38 -18 70 -6 33 -16 83 -22 110 -6 28 -12 68 -14 90 -2 22 -8 60
-14 85 -24 102 -11 149 42 150 15 0 16 -3 7 -20z m1125 -10 c18 -8 17 -9 -7
-9 -16 -1 -28 4 -28 9 0 12 8 12 35 0z m73 -40 c41 -38 18 -43 -25 -5 -20 17
-23 24 -12 25 8 0 25 -9 37 -20z m140 -72 c31 -31 0 -38 -38 -8 l-25 20 26 0
c14 0 30 -5 37 -12z m-1261 -360 c-3 -8 -6 -5 -6 6 -1 11 2 17 5 13 3 -3 4
-12 1 -19z m67 -192 c9 -20 14 -40 11 -45 -3 -5 -1 -12 5 -16 5 -3 10 -13 10
-21 0 -14 22 -68 66 -160 13 -28 24 -58 24 -67 0 -9 5 -19 12 -23 8 -5 9 0 6
14 -4 12 -2 25 3 28 5 3 12 -8 15 -25 4 -17 10 -31 15 -31 5 0 6 -6 3 -14 -3
-9 3 -20 15 -28 12 -7 21 -18 21 -25 0 -6 4 -13 9 -15 5 -1 11 -9 13 -17 2 -8
11 -23 21 -33 9 -10 17 -27 17 -37 0 -11 5 -23 10 -26 6 -3 10 -15 10 -25 0
-24 21 -70 32 -70 4 0 8 7 8 17 0 9 12 -1 30 -25 17 -23 30 -45 30 -48 0 -3
10 -19 23 -34 12 -15 29 -37 37 -50 8 -12 21 -28 28 -36 34 -35 -7 -24 -59 17
-35 27 -37 27 -42 9 -11 -42 -36 -19 -83 75 -45 91 -75 136 -54 80 13 -35 13
-40 -5 -25 -8 7 -15 18 -15 25 0 6 -18 40 -40 74 -22 34 -40 65 -40 70 0 4
-13 25 -30 47 -16 21 -30 43 -30 49 0 5 -11 32 -24 60 -25 53 -92 244 -107
309 -7 26 -6 43 1 50 5 5 10 33 11 61 l1 50 12 -51 c7 -29 20 -68 30 -88z
m1596 -47 c0 -5 -4 -9 -10 -9 -5 0 -10 7 -10 16 0 8 5 12 10 9 6 -3 10 -10 10
-16z m22 -51 c-2 -11 1 -36 8 -57 10 -32 9 -45 -8 -96 -29 -83 -65 -178 -97
-255 -27 -64 -37 -82 -116 -208 -22 -34 -48 -82 -58 -105 -10 -24 -36 -61 -57
-83 -22 -22 -55 -61 -74 -87 -19 -25 -47 -51 -61 -57 -15 -6 -39 -25 -55 -41
-15 -16 -32 -29 -38 -29 -5 0 -17 -7 -26 -15 -9 -8 -43 -22 -76 -31 -54 -14
-85 -14 -174 0 -36 5 -167 85 -204 124 -20 21 -40 32 -58 32 -17 0 -31 7 -38
20 -13 25 -4 25 46 1 97 -46 323 -61 414 -27 57 21 166 94 206 138 16 18 48
49 70 68 21 19 49 46 61 60 13 14 30 32 38 40 31 30 70 78 83 100 40 68 52 92
52 109 0 10 7 21 15 25 8 3 15 16 15 28 0 13 7 34 16 46 8 12 14 30 12 40 -1
9 2 24 7 32 16 24 35 83 35 108 0 24 -15 30 -23 10 -3 -7 -6 1 -6 18 -1 35 25
55 36 28 5 -14 8 -12 19 7 7 13 13 34 14 46 0 12 3 29 6 38 9 23 23 -1 16 -27z
m-2024 -94 c-7 -15 -14 -21 -16 -15 -5 16 5 41 17 41 7 0 6 -10 -1 -26z m-25
-71 c-5 -33 -23 -46 -23 -17 0 16 20 58 25 52 1 -1 0 -18 -2 -35z m1920 -85
c-3 -18 -12 -40 -19 -49 -8 -8 -14 -25 -14 -37 0 -20 -16 -39 -26 -29 -3 2 6
29 19 58 13 30 27 62 30 72 10 29 17 19 10 -15z m688 -88 c6 -14 16 -34 22
-45 10 -20 10 -20 -12 0 -21 18 -61 93 -61 112 1 11 37 -37 51 -67z m-2691 23
c-1 -5 -8 -37 -16 -73 -8 -36 -15 -72 -16 -80 0 -8 -14 -67 -31 -130 -17 -63
-31 -124 -32 -135 -1 -11 -9 -36 -17 -55 -8 -20 -20 -64 -26 -99 -6 -35 -19
-75 -29 -89 -42 -58 -74 -109 -89 -141 -8 -18 -26 -45 -40 -59 -13 -15 -24
-33 -24 -40 0 -16 -75 -150 -99 -177 -10 -11 -39 -63 -65 -115 -26 -52 -61
-122 -78 -155 -17 -33 -38 -76 -47 -95 -8 -19 -22 -43 -31 -53 -8 -10 -28 -46
-45 -80 -25 -52 -37 -65 -78 -85 -109 -53 -243 -70 -412 -52 -64 8 -118 17
-121 22 -8 13 48 33 197 73 305 80 317 85 338 156 7 24 23 57 36 73 12 17 26
42 30 55 4 12 17 38 29 56 12 18 35 68 51 111 16 44 41 95 56 114 16 19 35 54
43 78 8 23 34 73 56 111 23 38 50 93 61 123 12 29 29 62 39 73 20 22 50 89 50
112 0 8 15 33 34 56 18 23 40 60 47 82 8 22 28 61 44 86 17 26 62 112 100 193
61 126 86 168 85 139z m65 -40 c-1 -21 3 -43 8 -50 4 -6 4 -14 -2 -17 -5 -4
-13 -27 -17 -53 -4 -25 -15 -54 -25 -64 -11 -11 -14 -19 -9 -19 13 0 13 -37 0
-45 -6 -4 -8 -16 -5 -26 4 -11 1 -26 -5 -34 -6 -8 -9 -23 -6 -33 5 -13 -3 -30
-24 -52 -16 -18 -30 -38 -30 -45 0 -6 -9 -20 -20 -30 -11 -10 -20 -13 -20 -7
0 7 5 12 10 12 6 0 10 9 10 19 0 11 5 23 10 26 6 4 9 12 8 18 -1 7 4 22 11 35
7 13 10 30 7 38 -3 8 -1 14 4 14 10 0 23 51 24 99 1 19 6 36 11 38 6 2 10 18
9 36 -2 46 20 130 36 135 10 4 10 6 0 12 -7 4 -9 13 -6 19 13 21 21 11 21 -26z
m1865 -53 c-6 -11 -12 -20 -14 -20 -2 0 -2 9 1 20 3 11 9 20 15 20 5 0 4 -9
-2 -20z m-37 -66 c-9 -15 -19 -21 -21 -15 -4 13 16 41 29 41 5 0 2 -12 -8 -26z
m-1063 -14 c0 -5 -2 -10 -4 -10 -3 0 -8 5 -11 10 -3 6 -1 10 4 10 6 0 11 -4
11 -10z m-697 -48 c-10 -27 -43 -72 -54 -72 -5 0 -9 7 -9 15 0 8 5 15 10 15 6
0 10 6 10 13 0 17 32 57 42 51 4 -3 4 -12 1 -22z m2497 -85 c0 -5 5 -5 10 -2
6 3 13 -1 16 -9 3 -9 12 -16 20 -16 13 0 18 -12 15 -33 -2 -13 60 -45 79 -40
27 7 43 46 36 87 -4 23 -3 36 4 36 5 0 10 -5 10 -10 0 -11 37 -67 56 -85 6 -5
16 -28 22 -50 6 -23 27 -59 47 -82 19 -23 35 -48 35 -57 0 -22 31 -87 54 -113
10 -13 27 -46 37 -73 10 -28 38 -86 62 -128 24 -42 49 -92 56 -111 6 -19 22
-48 35 -65 26 -35 66 -114 66 -132 0 -7 23 -56 52 -110 28 -55 66 -129 84
-165 35 -71 61 -93 121 -108 21 -5 94 -25 163 -45 68 -20 130 -36 137 -36 7 0
38 -9 69 -21 41 -15 53 -24 45 -32 -20 -20 -191 -31 -331 -22 -49 3 -150 27
-156 37 -3 4 -12 8 -20 8 -27 0 -83 51 -94 86 -7 19 -22 47 -34 62 -13 15 -33
50 -45 77 -13 28 -32 68 -43 90 -11 22 -46 90 -76 150 -31 61 -68 126 -83 145
-14 19 -44 69 -65 110 -21 41 -44 83 -52 92 -8 9 -21 30 -30 47 -44 81 -83
141 -91 141 -5 0 -25 34 -45 75 -20 41 -40 75 -46 75 -5 0 -21 22 -35 49 -13
28 -32 54 -41 59 -16 9 -21 17 -63 93 -13 23 -30 49 -37 57 -28 28 -13 32 21
5 19 -15 35 -32 35 -36z m-1435 -176 c3 -5 1 -12 -5 -16 -5 -3 -10 1 -10 9 0
18 6 21 15 7z m65 -15 c0 -3 -4 -8 -10 -11 -5 -3 -10 -1 -10 4 0 6 5 11 10 11
6 0 10 -2 10 -4z m155 -6 c3 -5 -3 -10 -14 -10 -12 0 -21 5 -21 10 0 6 6 10
14 10 8 0 18 -4 21 -10z"/>
<path d="M3152 8118 c-6 -6 -12 -17 -12 -23 0 -7 -9 -20 -20 -30 -11 -10 -20
-25 -19 -34 0 -13 2 -13 12 3 7 10 23 32 35 47 24 30 28 61 4 37z"/>
<path d="M3057 7982 c-18 -19 -23 -42 -9 -42 4 0 16 14 25 30 20 33 10 40 -16
12z"/>
<path d="M3013 7923 c-7 -2 -13 -11 -13 -18 0 -8 -8 -19 -19 -24 -10 -6 -22
-22 -25 -36 -4 -14 -11 -25 -16 -25 -6 0 -10 -6 -10 -14 0 -7 -7 -20 -16 -27
-9 -7 -37 -45 -62 -84 -42 -64 -88 -126 -157 -211 -14 -18 -25 -37 -25 -42 0
-6 -11 -28 -25 -48 -14 -20 -25 -48 -25 -62 0 -14 -9 -36 -21 -48 -17 -18 -19
-26 -9 -43 6 -12 8 -26 5 -31 -10 -15 31 -97 54 -109 12 -7 21 -17 21 -24 0
-7 13 -24 29 -38 15 -14 31 -35 35 -47 4 -13 16 -22 27 -22 10 0 19 -4 19 -10
0 -18 283 -288 349 -332 14 -10 36 -18 49 -18 12 0 22 -4 22 -10 0 -15 58 -42
65 -29 9 13 -64 78 -88 79 -9 0 -25 9 -34 20 -10 11 -22 20 -27 20 -5 0 -34
24 -62 53 -29 28 -70 67 -91 85 -137 119 -306 300 -330 352 -17 38 -10 90 18
142 5 10 9 24 9 32 0 17 37 83 62 110 10 11 18 26 18 33 0 7 8 21 18 31 52 55
86 101 98 134 3 9 12 19 19 22 7 2 16 18 20 35 3 16 13 35 21 42 8 7 30 35 49
63 19 28 43 61 54 73 29 31 27 40 -6 26z"/>
<path d="M3673 7291 c-18 -9 -40 -26 -48 -37 -17 -26 -32 -154 -18 -154 6 0
13 27 17 60 6 48 13 65 37 90 18 18 42 30 57 31 24 0 74 16 62 19 -35 9 -81 5
-107 -9z"/>
<path d="M3720 6590 c-12 -8 -9 -9 12 -8 15 1 24 6 22 10 -7 10 -16 10 -34 -2z"/>
<path d="M3780 6569 c0 -7 10 -9 25 -5 14 4 25 2 25 -4 0 -5 4 -10 10 -10 5 0
7 7 4 15 -7 17 -64 21 -64 4z"/>
<path d="M3888 6563 c12 -2 30 -2 40 0 9 3 -1 5 -23 4 -22 0 -30 -2 -17 -4z"/>
<path d="M8140 7475 c0 -8 5 -15 10 -15 6 0 10 7 10 15 0 8 -4 15 -10 15 -5 0
-10 -7 -10 -15z"/>
<path d="M8203 7374 c88 -180 166 -346 192 -409 61 -148 67 -178 55 -245 -5
-29 -4 -37 5 -33 26 9 29 143 4 151 -5 2 -9 13 -9 25 0 21 -21 88 -30 97 -10
10 -40 72 -40 82 0 18 -171 357 -187 369 -8 7 -3 -9 10 -37z"/>
<path d="M7875 7280 c3 -5 8 -10 11 -10 2 0 4 5 4 10 0 6 -5 10 -11 10 -5 0
-7 -4 -4 -10z"/>
<path d="M8370 6462 c-19 -9 -37 -20 -40 -23 -4 -4 -142 -53 -187 -65 -7 -2
-13 -8 -13 -14 0 -12 42 -14 56 -2 5 5 38 19 74 32 36 12 72 28 80 35 8 7 25
16 37 19 21 7 53 37 37 35 -5 0 -25 -8 -44 -17z"/>
<path d="M8535 6439 c3 -4 -6 -11 -20 -15 -14 -3 -25 -10 -25 -16 0 -11 43 1
48 13 2 5 8 7 12 4 5 -3 11 -1 14 4 3 5 -3 11 -14 14 -11 3 -18 1 -15 -4z"/>
<path d="M8600 6439 c0 -5 5 -7 10 -4 6 3 10 8 10 11 0 2 -4 4 -10 4 -5 0 -10
-5 -10 -11z"/>
<path d="M8450 6390 c0 -5 5 -10 10 -10 6 0 10 5 10 10 0 6 -4 10 -10 10 -5 0
-10 -4 -10 -10z"/>
<path d="M8085 6350 c-3 -5 -13 -10 -21 -10 -24 0 -124 -49 -124 -60 0 -5 3
-10 8 -10 19 1 99 33 115 47 9 9 17 13 17 9 0 -4 9 -2 20 4 11 6 18 15 15 21
-8 12 -22 12 -30 -1z"/>
<path d="M5342 6348 c-16 -16 -15 -21 7 -46 20 -23 55 -29 67 -11 6 10 -42 69
-56 69 -3 0 -11 -5 -18 -12z"/>
<path d="M5476 6304 c-41 -61 -1 -93 42 -34 26 35 28 56 6 64 -22 9 -21 9 -48
-30z"/>
<path d="M5571 6272 c-16 -38 0 -73 44 -96 42 -23 55 -15 55 35 0 31 -6 45
-27 64 -37 32 -58 31 -72 -3z"/>
<path d="M5263 6204 c-40 -20 -43 -44 -8 -44 35 0 85 27 85 45 0 20 -36 19
-77 -1z"/>
<path d="M5356 6187 c-26 -19 -15 -72 14 -64 15 4 20 0 20 -14 0 -27 43 -41
97 -33 46 7 67 29 42 45 -8 5 -25 7 -39 5 -31 -6 -40 0 -62 39 -19 34 -45 42
-72 22z"/>
<path d="M5652 6078 c-6 -6 -12 -20 -12 -31 0 -14 6 -18 28 -15 21 2 27 8 27
28 0 28 -23 38 -43 18z"/>
<path d="M5030 6176 c0 -17 30 -30 42 -18 5 5 -3 14 -17 20 -20 9 -25 9 -25
-2z"/>
<path d="M4888 6003 c-10 -2 -18 -9 -18 -14 0 -15 43 -7 48 9 4 12 0 13 -30 5z"/>
<path d="M5486 5831 c-13 -20 23 -24 228 -21 272 4 364 3 401 -3 29 -5 177
-46 241 -67 38 -12 44 -13 44 0 0 6 -6 10 -12 10 -7 0 -69 16 -138 36 -69 20
-142 41 -162 46 -23 7 -79 8 -155 3 -130 -8 -284 -8 -380 0 -35 3 -64 1 -67
-4z"/>
<path d="M4870 5795 c0 -14 5 -25 10 -25 6 0 10 11 10 25 0 14 -4 25 -10 25
-5 0 -10 -11 -10 -25z"/>
<path d="M6422 5729 c2 -7 10 -15 17 -17 8 -3 12 1 9 9 -2 7 -10 15 -17 17 -8
3 -12 -1 -9 -9z"/>
<path d="M6480 5694 c0 -10 53 -75 58 -70 6 7 -38 76 -49 76 -5 0 -9 -3 -9 -6z"/>
<path d="M6289 5673 c0 -5 -2 -25 -5 -45 -5 -42 -5 -43 31 -26 28 12 32 34 11
61 -13 17 -35 23 -37 10z"/>
<path d="M6540 5536 c0 -37 4 -66 10 -66 6 0 10 26 10 59 0 33 -4 63 -10 66
-6 4 -10 -18 -10 -59z"/>
<path d="M6325 5570 c-3 -5 -3 -14 0 -20 7 -11 6 -9 38 -145 13 -56 29 -117
36 -137 6 -19 11 -51 10 -69 -1 -19 2 -42 6 -51 4 -10 3 -18 -3 -18 -10 0 -36
58 -33 73 1 4 -6 21 -14 37 -8 16 -15 40 -15 54 0 14 -5 28 -11 32 -6 4 -9 20
-6 38 5 33 -11 66 -33 66 -10 0 -10 -3 0 -15 6 -8 13 -36 15 -62 3 -43 9 -79
16 -93 1 -3 3 -9 4 -15 1 -5 7 -28 13 -50 17 -59 16 -72 -5 -53 -63 53 -56 17
8 -50 47 -49 55 -54 89 -50 l37 3 8 -110 c8 -112 11 -170 14 -262 1 -42 4 -51
16 -47 16 7 20 20 30 97 5 39 3 47 -9 47 -10 0 -16 9 -16 23 1 20 2 20 11 5
17 -30 26 -20 26 25 0 76 12 257 18 267 9 15 4 210 -7 216 -5 3 -8 16 -7 27 4
54 -2 117 -11 117 -5 0 -10 -9 -10 -20 0 -13 -7 -20 -20 -20 -11 0 -20 7 -20
16 0 8 -4 12 -10 9 -6 -4 -7 1 -3 11 4 11 -1 22 -12 30 -18 14 -18 14 0 14 17
0 17 1 1 19 -9 10 -16 25 -14 32 2 8 -3 14 -11 14 -10 0 -13 -16 -13 -63 0
-35 2 -66 6 -69 12 -12 6 -62 -8 -65 -11 -2 -9 -19 11 -83 32 -107 39 -191 17
-199 -10 -4 -22 1 -30 11 -11 15 -11 20 1 29 8 6 14 27 14 50 0 36 -31 171
-49 219 -4 11 -13 46 -20 78 -6 31 -16 57 -21 57 -5 0 -9 11 -9 24 0 27 -15
42 -25 26z m156 -173 c-10 -9 -11 -8 -5 6 3 10 9 15 12 12 3 -3 0 -11 -7 -18z
m63 -183 c-3 -276 -5 -333 -14 -339 -10 -6 -13 49 -9 165 1 36 2 76 1 90 0 14
-1 56 -2 94 0 57 -3 66 -14 56 -12 -9 -13 -7 -9 9 3 12 9 21 14 21 5 0 9 7 9
16 0 9 6 14 13 12 9 -4 12 -37 11 -124z m-39 26 c3 -5 1 -10 -4 -10 -6 0 -11
5 -11 10 0 6 2 10 4 10 3 0 8 -4 11 -10z m-125 -136 c0 -8 -4 -12 -10 -9 -5 3
-10 10 -10 16 0 5 5 9 10 9 6 0 10 -7 10 -16z"/>
<path d="M6280 5560 c0 -5 5 -10 10 -10 6 0 10 5 10 10 0 6 -4 10 -10 10 -5 0
-10 -4 -10 -10z"/>
<path d="M4920 5511 c0 -22 57 -74 71 -65 16 9 10 32 -15 58 -28 31 -56 34
-56 7z"/>
<path d="M6294 5510 c3 -14 6 -35 6 -47 0 -13 5 -23 10 -23 15 0 12 34 -6 66
-15 27 -15 27 -10 4z"/>
<path d="M4670 5314 c0 -8 5 -12 10 -9 6 4 8 11 5 16 -9 14 -15 11 -15 -7z"/>
<path d="M6258 4894 c-32 -17 -28 -44 7 -44 29 0 71 33 61 48 -10 16 -35 14
-68 -4z"/>
<path d="M6410 4890 c-12 -8 -10 -10 8 -10 13 0 20 4 17 10 -7 12 -6 12 -25 0z"/>
<path d="M4241 5104 c0 -11 3 -14 6 -6 3 7 2 16 -1 19 -3 4 -6 -2 -5 -13z"/>
<path d="M4797 5053 c-14 -13 -6 -43 13 -53 11 -6 20 -19 20 -30 0 -26 15 -33
40 -20 17 9 21 19 18 53 -3 38 -6 42 -30 42 -15 1 -30 4 -34 8 -9 9 -19 9 -27
0z"/>
<path d="M5132 4996 c-24 -7 -48 -20 -53 -29 -6 -10 -22 -17 -39 -17 -25 0
-30 -4 -30 -25 0 -28 21 -33 40 -10 7 8 29 15 50 15 21 0 43 6 50 14 6 8 21
16 33 18 14 2 22 10 22 23 0 24 -16 26 -73 11z"/>
<path d="M5810 4611 c0 -22 37 -38 52 -23 6 6 3 15 -7 26 -22 22 -45 20 -45
-3z"/>
<path d="M5990 4466 c0 -7 7 -19 15 -26 20 -16 38 -1 29 23 -7 20 -44 23 -44
3z"/>
<path d="M5704 4386 c-9 -23 0 -51 16 -51 10 0 15 10 15 29 0 32 -21 47 -31
22z"/>
<path d="M6196 4334 c-9 -8 -16 -20 -16 -25 0 -5 -4 -9 -10 -9 -5 0 -10 9 -10
20 0 25 -10 25 -49 3 -30 -18 -40 -33 -22 -33 5 0 12 -14 16 -31 13 -56 92
-83 133 -44 20 18 24 102 6 120 -19 19 -29 19 -48 -1z"/>
<path d="M5764 4255 c-10 -26 5 -65 25 -65 16 0 51 29 51 43 0 3 -7 13 -16 21
-20 20 -53 21 -60 1z"/>
<path d="M5980 4180 c0 -13 7 -20 20 -20 13 0 20 7 20 20 0 13 -7 20 -20 20
-13 0 -20 -7 -20 -20z"/>
<path d="M6458 4155 c-1 -25 -2 -52 -2 -62 -1 -9 4 -18 11 -20 9 -3 12 14 11
61 -1 74 -17 91 -20 21z"/>
<path d="M5275 4150 c-11 -18 6 -50 26 -50 22 0 26 29 7 48 -15 15 -25 15 -33
2z"/>
<path d="M5852 4058 c2 -13 10 -23 18 -23 8 0 16 10 18 23 3 17 -2 22 -18 22
-16 0 -21 -5 -18 -22z"/>
<path d="M5672 3973 c2 -10 10 -18 18 -18 8 0 16 8 18 18 2 12 -3 17 -18 17
-15 0 -20 -5 -18 -17z"/>
<path d="M6310 3962 c0 -20 29 -72 40 -72 15 0 12 7 -15 48 -14 20 -25 31 -25
24z"/>
<path d="M6146 3924 c-22 -31 -9 -50 28 -40 21 5 26 13 26 36 0 38 -27 40 -54
4z"/>
<path d="M6266 3837 c3 -10 9 -15 12 -12 3 3 0 11 -7 18 -10 9 -11 8 -5 -6z"/>
<path d="M5172 3657 c3 -19 10 -22 56 -25 47 -3 52 -1 52 17 0 12 -3 21 -7 21
-5 1 -30 3 -56 5 -45 4 -48 3 -45 -18z"/>
<path d="M5045 3030 c-9 -15 4 -50 19 -50 18 0 36 21 36 42 0 20 -44 26 -55 8z"/>
<path d="M5562 2738 c-15 -15 -16 -58 -2 -58 6 0 15 -12 20 -26 8 -20 16 -25
38 -22 23 3 27 8 30 38 2 19 -3 43 -10 52 -17 23 -60 32 -76 16z"/>
<path d="M5678 2489 c-28 -16 -22 -39 10 -39 36 0 56 14 49 34 -7 18 -33 20
-59 5z"/>
<path d="M5385 2438 c-31 -18 -45 -41 -33 -55 15 -19 30 -16 61 13 22 20 26
29 16 40 -14 17 -18 17 -44 2z"/>
<path d="M4790 2348 c0 -8 3 -18 8 -22 4 -4 7 -13 7 -18 0 -6 6 -13 13 -15 14
-5 16 13 2 22 -6 4 -8 10 -5 15 3 4 -2 13 -10 20 -12 10 -15 10 -15 -2z"/>
<path d="M4831 2249 c-1 -14 6 -34 14 -45 19 -25 19 -1 0 41 -13 30 -13 30
-14 4z"/>
<path d="M4991 2044 c0 -11 3 -14 6 -6 3 7 2 16 -1 19 -3 4 -6 -2 -5 -13z"/>
<path d="M6427 9265 c-20 -14 -37 -29 -37 -33 0 -4 -24 -19 -53 -35 -66 -35
-153 -115 -140 -128 13 -13 92 23 125 55 13 13 43 32 68 44 59 26 100 67 100
97 0 32 -16 31 -63 0z"/>
<path d="M5420 9051 c0 -12 5 -21 10 -21 6 0 10 6 10 14 0 8 -4 18 -10 21 -5
3 -10 -3 -10 -14z"/>
<path d="M5786 8673 c-13 -13 -4 -24 50 -58 31 -20 68 -47 82 -60 15 -14 30
-25 35 -25 11 0 77 -53 77 -62 0 -4 16 -32 35 -62 19 -30 46 -80 60 -113 14
-32 30 -66 35 -75 14 -26 12 -48 -4 -48 -8 0 -25 -15 -37 -32 -64 -91 -205
-193 -314 -228 -70 -22 -82 -46 -45 -85 17 -18 18 -26 10 -55 -15 -53 17 -138
65 -172 24 -18 83 -7 122 21 l39 28 -2 69 c-1 50 -8 80 -23 106 l-22 36 39 24
c61 36 111 77 184 151 75 76 86 109 44 128 -15 7 -26 23 -30 41 -6 31 -18 61
-69 168 -31 65 -33 72 -36 89 0 6 -11 21 -23 35 -13 14 -36 42 -52 61 -35 43
-204 133 -220 118z m125 -920 c8 -43 -12 -73 -38 -57 -22 13 -29 60 -12 80 19
23 43 12 50 -23z"/>
<path d="M5465 8600 c-10 -11 -15 -20 -11 -20 11 0 39 30 34 36 -3 2 -13 -5
-23 -16z"/>
<path d="M5530 8598 c0 -5 34 -8 75 -8 41 0 75 4 75 9 0 5 -34 9 -75 8 -41 -1
-75 -5 -75 -9z"/>
<path d="M5386 8574 c-9 -24 -7 -28 9 -14 17 14 20 30 6 30 -5 0 -12 -7 -15
-16z"/>
<path d="M5314 8511 c-10 -17 -22 -31 -26 -31 -16 0 -7 -20 14 -31 18 -10 20
-9 15 5 -4 10 0 31 9 48 21 40 11 48 -12 9z"/>
<path d="M6055 7719 c-4 -6 -5 -13 -2 -16 7 -7 27 6 27 18 0 12 -17 12 -25 -2z"/>
<path d="M6370 7710 c0 -5 5 -10 10 -10 6 0 10 5 10 10 0 6 -4 10 -10 10 -5 0
-10 -4 -10 -10z"/>
<path d="M6014 7480 c-29 -11 -39 -29 -20 -36 9 -3 16 -14 16 -24 0 -22 -82
-95 -142 -126 -26 -13 -49 -28 -53 -34 -12 -19 -132 -80 -158 -80 -14 0 -29
-4 -32 -10 -3 -5 -17 -10 -31 -10 -14 0 -46 -9 -72 -19 -26 -10 -87 -26 -136
-35 -49 -10 -93 -19 -98 -22 -4 -3 -8 -18 -8 -34 0 -45 54 -73 144 -75 102 -2
322 73 405 138 32 25 67 48 78 51 19 6 66 57 127 140 28 38 30 39 39 18 12
-27 43 -38 62 -22 11 9 13 27 8 74 -7 77 -17 96 -49 96 -14 0 -33 4 -42 9 -9
5 -27 5 -38 1z"/>
<path d="M6327 7384 c-11 -11 -8 -83 3 -105 15 -28 58 -25 72 5 16 36 -11 100
-44 104 -13 2 -27 0 -31 -4z"/>
<path d="M5957 7041 c-16 -15 -51 -36 -78 -45 -27 -10 -59 -26 -71 -35 -28
-20 -106 -54 -171 -74 -40 -12 -56 -13 -95 -2 -26 7 -41 14 -34 14 6 1 12 6
12 11 0 6 -21 9 -52 6 -43 -3 -56 -9 -75 -32 -27 -34 -30 -79 -6 -88 14 -6 14
-8 -3 -21 -27 -19 -8 -36 44 -38 23 -1 42 -5 42 -9 0 -4 6 -5 14 -2 7 3 27 -7
44 -21 30 -25 32 -25 66 -11 20 8 36 22 36 30 0 10 9 16 21 16 32 0 142 56
157 79 16 27 1 27 -23 1 -16 -17 -120 -49 -129 -39 -2 2 -6 13 -8 24 -2 15 3
21 21 23 13 2 39 12 58 23 18 10 40 19 48 19 8 0 18 6 22 14 4 8 26 23 49 35
50 26 174 152 147 150 -4 0 -21 -13 -36 -28z m-467 -166 c10 -13 9 -15 -11
-15 -13 0 -35 3 -47 7 -18 4 -20 8 -10 14 21 14 54 10 68 -6z m15 -55 c3 -5 2
-10 -4 -10 -5 0 -13 5 -16 10 -3 6 -2 10 4 10 5 0 13 -4 16 -10z"/>
<path d="M6331 6972 c-25 -20 -26 -60 0 -53 8 2 27 6 42 9 24 4 28 9 25 31 -4
32 -34 38 -67 13z"/>
<path d="M5615 6920 c-3 -5 -2 -10 4 -10 5 0 13 5 16 10 3 6 2 10 -4 10 -5 0
-13 -4 -16 -10z"/>
<path d="M6427 6713 c-12 -12 -7 -36 11 -49 13 -10 14 -13 3 -14 -8 0 -23 7
-33 17 -17 15 -18 15 -18 -5 0 -24 4 -27 47 -36 26 -6 34 -4 43 14 22 41 -24
103 -53 73z"/>
<path d="M3690 801 c-68 -9 -102 -33 -142 -99 l-35 -60 96 -6 c53 -3 117 -9
144 -12 36 -5 58 -1 91 15 61 28 83 33 188 37 51 2 107 5 123 7 17 2 36 5 43
5 17 3 15 32 -2 32 -8 0 -16 6 -19 14 -4 9 -37 15 -119 20 -63 4 -140 15 -173
26 -73 22 -135 29 -195 21z"/>
<path d="M3517 596 c-4 -10 -1 -13 9 -9 7 3 14 9 14 14 0 14 -17 10 -23 -5z"/>
</g>
</svg>
