<?xml version="1.0" standalone="no"?>
<!DOCTYPE svg PUBLIC "-//W3C//DTD SVG 20010904//EN"
 "http://www.w3.org/TR/2001/REC-SVG-20010904/DTD/svg10.dtd">
<svg version="1.0" xmlns="http://www.w3.org/2000/svg"
 width="800.000000pt" height="464.000000pt" viewBox="0 0 800.000000 464.000000"
 preserveAspectRatio="xMidYMid meet">

<g transform="translate(0.000000,464.000000) scale(0.100000,-0.100000)"
fill="#000000" stroke="none">
<path d="M3845 4193 c22 -3 47 -10 55 -17 24 -21 87 -27 101 -10 7 8 30 14 58
14 25 0 53 5 61 10 10 6 -40 9 -150 8 -91 -1 -147 -3 -125 -5z"/>
<path d="M4218 4183 c12 -2 30 -2 40 0 9 3 -1 5 -23 4 -22 0 -30 -2 -17 -4z"/>
<path d="M4410 4154 c0 -9 -13 -14 -37 -15 -36 -2 -36 -2 12 -11 28 -5 82 -11
120 -14 l70 -5 -35 17 c-19 8 -49 16 -67 17 -17 0 -30 4 -27 8 2 4 -5 9 -16
12 -13 3 -20 0 -20 -9z"/>
<path d="M3953 4133 c9 -2 25 -2 35 0 9 3 1 5 -18 5 -19 0 -27 -2 -17 -5z"/>
<path d="M3658 4103 c29 -2 74 -2 100 0 26 2 2 3 -53 3 -55 0 -76 -1 -47 -3z"/>
<path d="M3179 3922 c26 -4 51 -24 51 -41 0 -7 27 -11 71 -11 59 0 70 2 60 14
-16 20 5 32 59 35 24 1 46 4 49 7 2 2 -67 3 -155 2 -87 -1 -148 -3 -135 -6z"/>
<path d="M3005 3820 c-30 -11 -46 -35 -39 -55 6 -15 19 -17 101 -13 64 3 97 8
103 17 5 10 47 16 136 21 l129 7 -178 1 c-129 2 -185 6 -205 16 -16 8 -35 11
-47 6z"/>
<path d="M4106 3723 c-3 -10 -26 -40 -51 -68 -24 -27 -45 -56 -45 -62 0 -7
-11 -13 -25 -13 -16 0 -25 -6 -25 -15 0 -19 -9 -19 -32 2 -17 15 -18 15 -18
-13 1 -16 7 -40 15 -54 22 -38 18 -46 -10 -20 -14 13 -25 18 -25 12 0 -7 23
-28 50 -48 28 -20 54 -43 59 -52 7 -13 18 -6 63 40 71 72 102 136 103 209 0
42 -5 62 -19 78 -23 26 -33 26 -40 4z"/>
<path d="M3212 3605 c3 -3 19 -10 36 -14 25 -8 30 -6 25 5 -3 8 -19 14 -36 14
-17 0 -28 -2 -25 -5z"/>
<path d="M3308 3563 c7 -3 16 -2 19 1 4 3 -2 6 -13 5 -11 0 -14 -3 -6 -6z"/>
<path d="M3057 3360 c27 -11 143 -11 143 0 0 4 -37 8 -82 8 -58 1 -76 -2 -61
-8z"/>
<path d="M4426 3312 c-9 -11 -14 -26 -11 -34 7 -16 -76 -137 -129 -187 -19
-19 -44 -35 -54 -36 -26 -2 -82 -50 -82 -69 0 -25 51 -20 109 12 62 33 126 94
152 143 18 35 46 176 36 185 -2 2 -11 -4 -21 -14z"/>
<path d="M5740 3280 l0 -30 66 0 c41 0 63 4 59 10 -3 6 -14 10 -24 10 -10 0
-26 9 -36 20 -10 11 -29 20 -42 20 -19 0 -23 -5 -23 -30z"/>
<path d="M7520 3240 c0 -5 5 -10 10 -10 6 0 10 5 10 10 0 6 -4 10 -10 10 -5 0
-10 -4 -10 -10z"/>
<path d="M7557 3243 c-11 -10 -8 -45 3 -38 6 3 10 1 10 -4 0 -6 11 -11 25 -11
20 0 25 5 25 24 0 29 -43 49 -63 29z"/>
<path d="M521 3203 c0 -25 1 -26 9 -8 12 27 12 35 0 35 -5 0 -10 -12 -9 -27z"/>
<path d="M3700 3186 c26 -29 70 -56 91 -56 14 0 -20 27 -76 60 l-40 23 25 -27z"/>
<path d="M3660 3132 c0 -6 5 -12 11 -12 5 0 7 -5 4 -10 -4 -6 -12 -7 -18 -3
-7 4 1 -8 17 -27 35 -43 111 -96 167 -115 51 -18 59 -19 59 -2 0 8 -35 31 -77
52 -49 24 -94 55 -120 84 -24 25 -43 40 -43 33z"/>
<path d="M2858 3123 c28 -2 76 -2 105 0 28 2 5 3 -53 3 -58 0 -81 -1 -52 -3z"/>
<path d="M4913 3113 c32 -2 81 -2 110 0 29 2 3 3 -58 3 -60 0 -84 -1 -52 -3z"/>
<path d="M4140 3034 c-12 -19 -20 -37 -18 -39 2 -3 15 13 27 35 28 50 21 53
-9 4z"/>
<path d="M5939 3031 c-103 -22 -129 -37 -129 -73 0 -35 -65 -114 -126 -155
-43 -27 -30 -40 49 -46 85 -6 120 8 184 73 34 33 123 189 123 214 0 8 -1 8
-101 -13z"/>
<path d="M6520 3020 c-8 -6 -40 -17 -70 -26 -100 -30 -172 -74 -162 -102 2 -6
-1 -12 -7 -12 -6 0 -11 -5 -11 -11 0 -6 -21 -31 -46 -55 -50 -46 -50 -60 -2
-85 29 -16 125 17 176 60 24 20 51 41 60 46 10 6 17 15 17 20 0 6 19 47 42 93
39 77 40 96 3 72z"/>
<path d="M4683 3013 c9 -2 25 -2 35 0 9 3 1 5 -18 5 -19 0 -27 -2 -17 -5z"/>
<path d="M5054 2999 c-5 -9 1 -10 21 -5 17 4 31 3 35 -4 5 -8 9 -7 13 4 5 13
-1 16 -28 16 -18 0 -37 -5 -41 -11z"/>
<path d="M5563 2993 c-13 -8 -23 -23 -23 -32 0 -13 2 -13 9 -2 5 7 13 11 19 7
6 -3 18 1 26 10 33 33 10 46 -31 17z"/>
<path d="M6939 2968 c-30 -18 -75 -44 -102 -57 -26 -13 -47 -29 -47 -36 0 -7
-16 -29 -36 -49 -20 -20 -33 -40 -30 -43 3 -3 42 -7 86 -8 l80 -2 38 41 c51
56 122 150 122 163 0 11 -23 23 -44 23 -7 0 -37 -15 -67 -32z"/>
<path d="M2270 2983 c0 -7 -17 -15 -37 -19 -21 -4 -52 -15 -70 -24 l-31 -17
19 -42 c10 -24 19 -51 19 -62 0 -31 110 -98 142 -86 7 2 20 -2 29 -10 14 -12
18 -11 28 1 10 12 8 30 -13 89 -31 93 -85 201 -86 170z"/>
<path d="M1709 2947 c16 -16 14 -32 -2 -18 -16 13 -27 5 -27 -20 0 -13 -9 -19
-37 -21 l-38 -3 -3 -51 -3 -52 38 -7 c21 -4 42 -9 46 -12 5 -3 30 -7 56 -8
155 -9 143 -11 130 23 -11 30 -77 120 -110 151 -23 21 -71 39 -50 18z"/>
<path d="M2575 2940 c18 -20 18 -21 -1 -14 -10 4 -25 12 -32 17 -11 8 -12 5
-6 -19 15 -62 37 -120 58 -149 11 -16 26 -39 31 -49 13 -26 65 -37 143 -30 34
4 62 7 62 8 -1 22 -42 128 -56 144 -21 25 -113 75 -177 98 l-40 14 18 -20z"/>
<path d="M1104 2921 c9 -10 16 -22 15 -27 -1 -5 -1 -25 0 -44 1 -41 27 -57
104 -67 37 -5 47 -3 47 9 0 15 -71 78 -88 78 -6 0 -13 11 -16 24 -4 15 -17 28
-37 35 -43 15 -45 14 -25 -8z"/>
<path d="M5455 2926 c-36 -15 -95 -64 -95 -77 0 -6 12 2 27 16 15 14 31 25 35
25 4 0 24 11 44 25 40 27 36 32 -11 11z"/>
<path d="M5652 2915 c-7 -14 -12 -31 -12 -38 1 -7 7 3 16 22 17 39 13 54 -4
16z"/>
<path d="M5541 2863 c-19 -46 -69 -123 -79 -123 -5 0 -1 30 9 67 10 37 17 68
15 70 -2 2 -14 -10 -26 -27 -21 -29 -133 -110 -153 -110 -5 0 -6 8 -3 17 9 22
3 16 -26 -27 -13 -18 -39 -39 -58 -46 -33 -12 -31 -13 45 -13 99 -1 142 11
197 52 45 35 102 125 96 155 -2 12 -7 8 -17 -15z"/>
<path d="M5632 2840 c0 -14 2 -19 5 -12 2 6 2 18 0 25 -3 6 -5 1 -5 -13z"/>
<path d="M5329 2813 c-13 -16 -12 -17 4 -4 16 13 21 21 13 21 -2 0 -10 -8 -17
-17z"/>
<path d="M5621 2794 c0 -11 3 -14 6 -6 3 7 2 16 -1 19 -3 4 -6 -2 -5 -13z"/>
<path d="M4433 2783 c-10 -10 -25 -36 -32 -58 -16 -47 -70 -124 -88 -125 -7 0
-13 -7 -13 -15 0 -8 -7 -15 -15 -15 -8 0 -15 -7 -15 -15 0 -18 -16 -20 -23 -2
-3 6 -6 -1 -6 -16 -1 -16 -5 -26 -10 -22 -5 3 -12 1 -16 -5 -4 -6 -10 -8 -15
-5 -9 6 -50 -46 -50 -64 0 -33 84 2 171 70 95 76 119 116 119 202 0 29 5 58
12 65 19 19 2 24 -19 5z"/>
<path d="M645 2750 c-3 -5 1 -10 9 -10 9 0 16 5 16 10 0 6 -4 10 -9 10 -6 0
-13 -4 -16 -10z"/>
<path d="M3088 2733 c12 -2 30 -2 40 0 9 3 -1 5 -23 4 -22 0 -30 -2 -17 -4z"/>
<path d="M4320 2644 c0 -8 5 -12 10 -9 6 4 8 11 5 16 -9 14 -15 11 -15 -7z"/>
<path d="M3621 2634 c-2 -21 57 -100 107 -145 33 -30 67 -50 96 -58 110 -27
101 -1 -17 54 -89 41 -124 69 -169 135 -9 14 -17 20 -17 14z"/>
<path d="M7608 2603 c6 -2 18 -2 25 0 6 3 1 5 -13 5 -14 0 -19 -2 -12 -5z"/>
<path d="M143 2592 c-13 -2 -23 -8 -23 -13 0 -5 10 -10 23 -10 30 -2 39 -4 60
-13 10 -5 23 -4 31 3 11 10 17 8 25 -6 8 -13 13 -15 19 -6 6 10 23 10 72 2 69
-11 307 -19 328 -12 6 3 12 13 12 23 0 11 -6 22 -12 27 -12 7 -486 12 -535 5z"/>
<path d="M7284 2567 l-36 -32 56 1 c31 1 59 4 63 7 3 4 15 2 25 -4 14 -8 23
-8 31 0 6 6 29 10 52 10 l40 -2 -40 -7 c-38 -7 -37 -7 19 -9 l58 -1 -14 23
c-9 12 -25 23 -37 25 -11 2 -21 8 -21 13 0 5 -36 9 -80 9 -77 0 -82 -1 -116
-33z"/>
<path d="M2810 2566 c-8 -8 -49 -26 -90 -41 -126 -44 -167 -72 -230 -155 -32
-41 -69 -86 -84 -99 -14 -14 -26 -28 -26 -32 0 -29 135 -1 171 35 11 12 48 59
83 106 45 62 81 98 131 133 38 26 74 52 79 57 16 16 -18 12 -34 -4z"/>
<path d="M1170 2482 c-58 -31 -118 -64 -134 -72 -15 -8 -41 -31 -57 -51 l-29
-36 56 -6 c68 -7 121 1 154 23 14 9 32 19 40 22 53 20 160 133 160 170 0 4
-19 8 -42 8 -33 0 -67 -13 -148 -58z"/>
<path d="M1758 2506 c-87 -36 -158 -88 -158 -116 0 -10 -4 -21 -10 -25 -5 -3
-7 -12 -3 -20 3 -9 -1 -15 -9 -15 -7 0 -18 -10 -23 -22 -6 -13 -19 -23 -30
-23 -11 -1 -26 -4 -33 -8 -20 -13 -13 9 10 29 20 18 21 18 15 1 -4 -11 -3 -16
4 -12 6 4 8 14 5 22 -4 9 11 35 36 65 28 34 35 46 19 37 -12 -8 -48 -47 -78
-88 -45 -59 -53 -75 -42 -83 11 -8 10 -9 -3 -4 -12 3 -24 -5 -38 -24 -19 -26
-19 -29 -3 -32 42 -8 142 16 214 52 83 42 116 75 156 154 14 28 41 69 59 90
19 22 34 43 34 48 0 15 -45 6 -122 -26z"/>
<path d="M2245 2484 c-80 -34 -145 -80 -96 -67 21 5 22 3 16 -33 -4 -22 -8
-45 -10 -51 -7 -21 -25 -15 -25 7 0 43 -31 34 -86 -24 -29 -31 -59 -66 -65
-78 -11 -20 -10 -21 32 -14 24 3 69 19 99 34 46 24 63 41 107 108 28 43 66 96
83 117 18 20 31 37 29 36 -2 0 -40 -16 -84 -35z"/>
<path d="M5641 2515 c2 -5 30 -48 61 -95 56 -85 99 -133 137 -154 11 -6 38
-24 60 -39 47 -34 111 -46 129 -25 17 22 -6 63 -46 82 -18 9 -37 27 -42 42
-29 75 -82 115 -206 155 -38 12 -75 27 -83 33 -8 6 -12 7 -10 1z"/>
<path d="M5306 2478 c3 -13 25 -61 48 -108 38 -80 44 -87 96 -112 43 -23 68
-28 123 -28 50 0 68 3 65 13 -2 6 -21 44 -42 83 -35 64 -44 73 -80 84 -23 7
-57 25 -77 41 -42 33 -80 49 -115 49 -22 0 -24 -3 -18 -22z"/>
<path d="M6220 2486 c0 -17 24 -102 31 -112 5 -6 0 -17 -11 -27 -11 -9 -22
-12 -25 -7 -4 6 -13 10 -21 10 -12 0 -12 -4 -4 -20 6 -11 16 -17 22 -14 7 4 8
3 4 -4 -9 -15 60 -60 104 -67 19 -3 42 -8 50 -10 21 -6 67 -13 126 -20 47 -5
52 -4 58 17 9 34 8 38 -9 38 -11 0 -14 7 -11 24 2 14 -3 32 -13 43 -9 10 -30
35 -46 56 -38 52 -114 88 -192 95 -35 2 -63 2 -63 -2z"/>
<path d="M6753 2483 c-28 -5 -29 -23 -3 -56 26 -33 25 -45 -5 -53 -14 -3 -25
-9 -25 -13 0 -12 105 -78 143 -91 32 -10 44 -9 78 4 22 9 53 16 69 16 17 0 30
3 30 6 0 14 -42 74 -51 74 -6 0 -8 4 -5 8 3 5 -12 18 -32 29 -20 11 -57 31
-82 45 -50 28 -84 37 -117 31z"/>
<path d="M540 2340 c0 -5 7 -7 15 -4 8 4 15 8 15 10 0 2 -7 4 -15 4 -8 0 -15
-4 -15 -10z"/>
<path d="M4437 2243 c-4 -7 -5 -24 -1 -38 4 -15 2 -25 -5 -25 -6 0 -11 6 -11
13 -1 17 -40 -72 -40 -90 0 -10 -6 -12 -20 -8 -14 4 -22 1 -27 -12 -9 -23 -58
-73 -72 -73 -7 0 -16 -11 -21 -25 -5 -14 -21 -31 -36 -37 -27 -13 -59 -62 -49
-78 3 -6 15 -10 26 -10 12 0 17 -4 13 -11 -20 -33 123 41 163 84 15 16 22 27
16 23 -20 -11 -15 2 16 48 41 59 63 132 59 197 -2 30 -6 49 -11 42z"/>
<path d="M3278 2233 c7 -3 16 -2 19 1 4 3 -2 6 -13 5 -11 0 -14 -3 -6 -6z"/>
<path d="M937 2190 c37 -12 52 -30 26 -31 -16 0 -16 -1 2 -9 24 -10 154 -12
208 -4 26 5 37 12 37 24 0 15 -13 18 -107 19 -60 0 -128 3 -153 6 -42 4 -43 4
-13 -5z"/>
<path d="M5161 2186 c2 -2 18 -6 34 -10 22 -5 26 -4 15 4 -14 9 -59 15 -49 6z"/>
<path d="M3163 2173 c9 -2 23 -2 30 0 6 3 -1 5 -18 5 -16 0 -22 -2 -12 -5z"/>
<path d="M4688 2173 c7 -3 16 -2 19 1 4 3 -2 6 -13 5 -11 0 -14 -3 -6 -6z"/>
<path d="M4733 2173 c9 -2 25 -2 35 0 9 3 1 5 -18 5 -19 0 -27 -2 -17 -5z"/>
<path d="M476 2154 c-8 -22 -8 -24 9 -24 8 0 19 9 25 20 9 17 8 20 -9 20 -10
0 -22 -7 -25 -16z"/>
<path d="M7538 2151 c-27 -27 -23 -31 37 -31 52 0 54 1 46 23 -11 29 -59 34
-83 8z"/>
<path d="M4698 2133 c-16 -2 -28 -10 -28 -16 0 -8 20 -11 65 -9 63 4 82 13 49
26 -16 6 -40 6 -86 -1z"/>
<path d="M3601 2112 c-3 -44 108 -189 172 -226 52 -31 127 -45 127 -25 0 22
-27 146 -35 158 -9 15 -32 14 -42 -1 -4 -7 -15 -13 -23 -13 -27 0 -23 -34 4
-45 14 -5 26 -17 26 -25 0 -19 -19 -10 -64 29 -16 15 -37 26 -46 26 -24 0 -65
48 -63 73 2 19 2 20 -5 4 -7 -16 -10 -17 -20 -5 -6 8 -16 25 -21 39 -5 13 -10
18 -10 11z"/>
<path d="M2525 2011 c-2 -4 0 -13 5 -21 8 -13 13 -12 31 6 l21 22 -26 0 c-15
0 -28 -4 -31 -7z"/>
<path d="M5696 2004 c-15 -38 -8 -44 55 -44 37 0 58 4 54 10 -3 6 -14 10 -25
10 -13 0 -17 5 -13 20 5 17 0 20 -30 20 -23 0 -37 -6 -41 -16z m46 -6 c-9 -9
-15 -9 -24 0 -9 9 -7 12 12 12 19 0 21 -3 12 -12z m8 -24 c0 -2 -9 -4 -20 -4
-11 0 -20 4 -20 9 0 5 9 7 20 4 11 -3 20 -7 20 -9z"/>
<path d="M7286 2012 c6 -4 14 -19 17 -33 5 -21 12 -26 33 -23 33 3 33 4 27 37
-5 24 -9 27 -47 27 -22 0 -36 -4 -30 -8z"/>
<path d="M788 1997 c-31 -12 -36 -25 -13 -34 16 -5 55 22 55 39 0 10 -7 9 -42
-5z"/>
<path d="M2173 2003 c10 -3 17 -14 17 -29 0 -23 3 -24 38 -19 63 11 72 16 72
36 0 17 -7 19 -72 18 -40 -1 -65 -3 -55 -6z"/>
<path d="M4130 1961 c-12 -24 -13 -34 -1 -27 9 6 22 46 15 46 -2 0 -8 -9 -14
-19z"/>
<path d="M2988 1783 c12 -2 32 -2 45 0 12 2 2 4 -23 4 -25 0 -35 -2 -22 -4z"/>
<path d="M4501 1759 c-18 -11 -40 -18 -47 -15 -8 3 -14 1 -14 -4 0 -5 -8 -11
-17 -13 -10 -3 48 -5 129 -6 81 0 149 3 152 8 3 5 -3 11 -14 14 -10 3 -20 1
-22 -5 -4 -12 -58 0 -58 13 0 5 12 9 28 9 15 0 34 5 42 10 10 7 -10 10 -65 10
-63 0 -87 -4 -114 -21z"/>
<path d="M3068 1703 c18 -2 45 -2 60 0 15 2 0 4 -33 4 -33 0 -45 -2 -27 -4z"/>
<path d="M3570 1700 c-8 -5 -28 -12 -45 -17 -27 -7 -24 -8 24 -11 70 -4 91 3
65 23 -22 17 -24 17 -44 5z"/>
<path d="M4468 1672 c-36 -2 -46 -6 -41 -18 4 -10 -2 -14 -21 -14 -14 0 -26 4
-26 8 0 14 -120 14 -189 0 -66 -13 -83 -27 -96 -79 l-6 -26 113 -6 c425 -24
471 -25 501 -15 41 14 109 63 100 72 -4 4 -1 11 7 16 11 7 11 11 2 23 -18 21
-238 46 -344 39z"/>
<path d="M5134 1639 c-66 -57 -74 -66 -74 -81 0 -8 4 -7 11 5 5 9 14 17 20 17
10 0 36 24 78 73 35 39 20 33 -35 -14z"/>
<path d="M3540 1638 c-52 -5 -170 -7 -262 -4 -93 4 -168 4 -168 1 0 -2 17 -13
38 -24 20 -10 46 -28 56 -40 23 -26 97 -29 116 -6 8 10 30 15 61 15 43 0 49
-3 49 -20 0 -13 -10 -24 -26 -31 -15 -5 -25 -11 -23 -14 8 -7 119 7 114 15 -2
4 12 6 33 4 67 -4 92 5 92 35 0 25 4 27 65 39 35 6 74 12 85 12 31 0 24 17
-11 24 -39 7 -96 6 -219 -6z m36 -60 c2 -3 -25 -8 -62 -12 -74 -8 -94 -2 -43
12 34 9 95 9 105 0z"/>
<path d="M5012 1530 c-18 -16 -37 -30 -41 -30 -5 0 -11 -9 -14 -21 -5 -17 -2
-20 14 -16 11 3 23 -1 29 -11 5 -10 10 -12 10 -6 0 5 -5 15 -11 21 -8 8 -2 20
20 42 17 18 31 36 31 41 0 14 -2 13 -38 -20z"/>
<path d="M2928 1498 c5 -5 16 -8 23 -6 8 3 3 7 -10 11 -17 4 -21 3 -13 -5z"/>
<path d="M3763 1483 c9 -2 23 -2 30 0 6 3 -1 5 -18 5 -16 0 -22 -2 -12 -5z"/>
<path d="M3403 1473 c9 -2 23 -2 30 0 6 3 -1 5 -18 5 -16 0 -22 -2 -12 -5z"/>
<path d="M3588 1473 c7 -3 16 -2 19 1 4 3 -2 6 -13 5 -11 0 -14 -3 -6 -6z"/>
<path d="M3628 1473 c6 -2 18 -2 25 0 6 3 1 5 -13 5 -14 0 -19 -2 -12 -5z"/>
<path d="M3685 1470 c28 -12 37 -12 30 0 -3 6 -16 10 -28 9 -21 0 -21 -1 -2
-9z"/>
<path d="M4100 1433 c0 -40 19 -63 21 -25 0 11 2 12 6 4 3 -7 -2 -21 -10 -30
-15 -16 -9 -17 81 -10 118 8 281 48 294 72 7 13 17 16 39 11 18 -4 29 -3 29 4
0 7 -38 11 -107 12 -60 0 -163 2 -230 2 l-123 2 0 -42z m98 -24 c10 -1 7 -4
-8 -9 -40 -13 -50 -11 -43 6 3 8 12 13 20 10 8 -3 22 -6 31 -7z"/>
<path d="M3000 1441 c0 -11 134 -101 150 -101 5 0 10 -4 10 -9 0 -5 8 -11 18
-14 9 -2 25 -8 35 -12 10 -4 17 -3 17 3 0 18 -30 41 -45 36 -8 -4 -15 -2 -15
3 0 5 -15 17 -32 28 -18 10 -48 31 -66 47 -31 27 -72 38 -72 19z"/>
<path d="M3663 1414 c-10 -25 9 -34 87 -39 61 -4 71 -3 53 6 -13 7 -23 18 -23
24 0 25 -107 34 -117 9z"/>
<path d="M4924 1403 c-3 -10 -10 -26 -15 -36 -8 -15 -7 -16 10 -5 11 7 18 16
15 20 -3 4 2 5 10 2 11 -4 16 0 16 15 0 26 -28 28 -36 4z"/>
<path d="M3240 1306 c0 -9 5 -16 10 -16 6 0 10 4 10 9 0 6 -4 13 -10 16 -5 3
-10 -1 -10 -9z"/>
<path d="M3270 1285 c0 -8 9 -15 20 -15 24 0 27 15 4 24 -22 9 -24 8 -24 -9z"/>
<path d="M2063 873 c-3 -10 -25 -65 -48 -123 -66 -161 -141 -367 -166 -450
-12 -41 -32 -96 -45 -122 -13 -26 -24 -52 -24 -58 0 -6 30 -10 74 -10 l73 0 7
41 c4 23 13 56 21 75 l14 34 130 0 129 0 11 -32 c6 -18 13 -52 17 -75 l7 -43
74 0 c68 0 74 2 67 18 -9 22 -62 172 -148 422 -37 107 -82 227 -101 267 -29
63 -37 73 -60 73 -15 0 -28 -7 -32 -17z m86 -63 c17 -38 75 -200 130 -359 55
-160 105 -299 111 -311 10 -19 8 -20 -54 -20 l-64 0 -7 38 c-3 20 -11 54 -17
75 l-11 37 -138 0 -138 0 -20 -55 c-12 -31 -21 -65 -21 -75 0 -18 -7 -20 -65
-20 -36 0 -65 2 -65 5 0 3 11 27 24 53 14 27 36 86 49 133 21 73 68 200 184
496 22 58 32 73 49 73 17 0 28 -15 53 -70z"/>
<path d="M2085 608 c-4 -12 -25 -64 -46 -115 -22 -51 -39 -97 -39 -102 0 -7
35 -11 95 -11 53 0 95 4 95 10 0 17 -69 201 -84 221 -14 21 -14 21 -21 -3z
m64 -121 c17 -48 31 -90 31 -93 0 -2 -39 -4 -86 -4 -78 0 -86 2 -80 18 4 9 23
56 43 105 44 103 46 102 92 -26z"/>
<path d="M7390 881 c0 -3 8 -13 18 -24 15 -17 17 -49 17 -361 0 -187 -4 -351
-9 -363 l-8 -23 241 0 241 0 0 75 0 75 -160 0 -160 0 0 85 0 84 98 3 97 3 0
65 0 65 -102 3 -103 3 0 84 0 85 155 0 155 0 5 28 c3 15 9 45 14 67 5 22 9 41
8 42 -4 4 -507 8 -507 4z m278 -11 c153 0 221 -3 217 -11 -4 -5 -10 -31 -14
-57 l-6 -47 -155 -5 -155 -5 0 -90 0 -90 103 -3 102 -3 0 -59 0 -60 -100 0
-100 0 0 -95 0 -95 160 0 160 0 0 -65 0 -65 -231 0 c-217 0 -231 1 -223 18 5
9 9 171 9 358 0 328 -1 343 -20 365 l-20 22 25 -6 c14 -4 125 -7 248 -7z"/>
<path d="M102 848 c23 -33 23 -34 23 -358 0 -179 -4 -337 -9 -353 l-8 -27 156
0 c179 0 238 15 309 79 49 44 67 85 67 153 0 62 -21 103 -75 144 l-36 27 31
25 c42 33 60 72 60 129 0 64 -33 119 -93 160 -70 47 -103 53 -285 53 l-163 0
23 -32z m321 16 c58 -10 138 -63 164 -109 25 -44 31 -121 12 -158 -6 -12 -27
-36 -46 -53 l-35 -31 41 -32 c53 -42 71 -78 71 -141 0 -91 -40 -148 -135 -192
-44 -20 -69 -23 -213 -26 l-164 -4 9 24 c4 12 8 172 8 354 0 312 -1 333 -19
353 l-19 21 144 0 c79 0 161 -3 182 -6z"/>
<path d="M250 656 l0 -96 85 0 c80 0 86 2 120 31 45 40 49 92 9 130 -23 21
-36 24 -120 27 l-94 4 0 -96z m204 55 c35 -33 34 -74 -3 -112 -28 -27 -34 -29
-110 -29 l-81 0 0 86 0 86 84 -3 c73 -4 88 -7 110 -28z"/>
<path d="M250 346 l0 -106 78 0 c86 0 148 22 176 61 24 36 19 66 -18 107 l-34
37 -101 3 -101 4 0 -106z m224 65 c32 -30 40 -65 22 -100 -21 -39 -80 -61
-166 -61 l-70 0 0 96 0 96 95 -4 c81 -3 98 -7 119 -27z"/>
<path d="M713 850 l28 -32 -3 -337 c-2 -185 -7 -344 -12 -353 -7 -16 -1 -18
68 -18 l76 0 0 140 0 140 53 0 c52 0 53 -1 66 -37 7 -21 33 -72 57 -114 23
-42 46 -88 49 -102 6 -24 11 -26 83 -29 43 -2 79 -2 81 -1 2 1 -17 35 -41 75
-25 40 -58 102 -74 138 -15 36 -32 71 -38 79 -8 10 -8 15 2 19 30 10 73 57 98
107 23 47 26 65 22 124 -5 92 -37 140 -128 190 l-65 36 -174 4 -175 3 27 -32z
m386 -20 c86 -46 114 -89 119 -181 6 -100 -33 -177 -113 -224 -14 -9 -16 -15
-7 -30 6 -11 25 -51 42 -88 17 -38 48 -96 69 -130 l38 -62 -66 3 -66 4 -69
139 -68 139 -59 0 -59 0 0 -140 0 -140 -65 0 -65 0 10 26 c6 14 10 163 10 348
0 317 0 324 -22 351 l-21 27 164 -4 164 -4 64 -34z"/>
<path d="M860 620 l0 -120 75 0 c86 0 119 13 153 59 34 46 30 93 -14 141 l-36
40 -89 0 -89 0 0 -120z m188 94 c26 -18 52 -65 52 -94 0 -34 -31 -78 -66 -95
-19 -9 -60 -15 -98 -15 l-66 0 0 110 0 110 78 0 c54 0 84 -5 100 -16z"/>
<path d="M1309 857 c21 -24 22 -25 18 -363 -1 -186 -6 -349 -11 -361 l-8 -23
219 0 218 0 12 58 c6 31 14 64 17 73 6 14 -10 15 -154 11 l-160 -5 0 92 0 91
105 0 105 0 0 70 0 70 -105 0 -105 0 0 85 0 84 148 3 147 3 6 50 c4 28 10 58
14 68 7 16 -9 17 -241 17 l-247 0 22 -23z m451 -13 c-6 -14 -10 -41 -10 -60
l0 -34 -150 0 -150 0 0 -95 0 -95 105 0 105 0 0 -60 0 -60 -105 0 -105 0 0
-101 0 -101 159 4 159 4 -14 -39 c-8 -22 -14 -50 -14 -63 l0 -24 -210 0 -210
0 10 26 c6 14 10 165 10 356 0 294 -2 333 -17 350 -16 17 -8 18 215 18 l232 0
-10 -26z"/>
<path d="M2444 849 l27 -31 -4 -332 c-1 -182 -7 -341 -11 -354 l-8 -22 144 0
c142 0 144 0 213 33 106 51 168 129 200 254 39 148 0 292 -103 385 -84 76
-111 83 -346 93 l-138 6 26 -32z m288 6 c54 -5 113 -32 164 -77 98 -86 137
-236 99 -381 -32 -124 -87 -194 -190 -244 -68 -32 -72 -33 -207 -33 l-138 0
10 26 c6 14 10 163 10 348 0 312 -1 324 -21 350 l-20 26 123 -5 c68 -3 144 -7
170 -10z"/>
<path d="M2590 495 l0 -255 53 0 c89 1 128 15 174 63 50 53 63 95 63 210 0 68
-4 97 -20 127 -34 67 -118 110 -216 110 l-54 0 0 -255z m187 213 c69 -35 93
-86 93 -197 0 -110 -13 -154 -58 -203 -40 -42 -83 -57 -164 -58 l-48 0 0 246
0 247 65 -6 c41 -3 84 -14 112 -29z"/>
<path d="M3111 843 c17 -34 19 -63 19 -353 0 -260 -3 -320 -15 -344 -8 -15
-15 -30 -15 -32 0 -2 105 -4 234 -4 l233 0 6 58 c3 31 9 66 12 77 6 20 2 20
-159 17 l-166 -4 0 86 0 86 105 0 105 0 0 70 0 70 -105 0 -105 0 0 85 0 84
147 3 148 3 7 49 c4 27 12 54 17 59 6 6 11 15 11 19 0 4 -112 8 -249 8 l-249
0 19 -37z m453 0 c-7 -16 -14 -43 -14 -60 l0 -33 -150 0 -150 0 0 -95 0 -95
105 0 105 0 0 -60 0 -60 -105 0 -105 0 0 -96 0 -95 165 3 c144 3 164 1 159
-12 -3 -8 -8 -39 -11 -67 l-6 -53 -223 0 -223 0 15 28 c21 40 21 637 0 687
l-15 35 234 0 234 0 -15 -27z"/>
<path d="M3600 874 c0 -3 15 -24 34 -45 18 -22 52 -78 75 -124 22 -47 57 -111
77 -142 32 -50 35 -59 23 -78 -7 -11 -42 -73 -76 -139 -35 -65 -79 -143 -98
-172 -19 -30 -35 -57 -35 -59 0 -3 33 -5 74 -5 73 0 74 0 85 30 5 17 26 54 45
83 19 28 46 76 61 105 14 28 28 52 31 52 3 0 11 -15 19 -33 8 -19 36 -67 64
-106 27 -40 53 -86 56 -102 l7 -29 89 0 c49 0 89 2 89 5 0 2 -17 27 -37 54
-21 27 -73 107 -116 178 -43 70 -83 136 -90 145 -9 14 -9 23 3 40 7 13 44 74
82 135 37 62 79 130 93 150 39 58 35 63 -50 63 -63 0 -76 -3 -81 -17 -18 -60
-111 -233 -125 -233 -4 0 -12 13 -19 30 -7 16 -31 58 -54 93 -22 36 -49 79
-58 96 -17 30 -18 31 -93 31 -41 0 -75 -3 -75 -6z m171 -46 c12 -24 31 -56 44
-73 12 -16 34 -54 49 -82 14 -29 30 -53 35 -53 18 0 131 202 131 235 0 12 14
15 70 15 39 0 70 -3 70 -8 0 -4 -11 -24 -25 -45 -14 -20 -56 -88 -93 -150 -38
-61 -75 -122 -82 -135 -12 -17 -12 -26 -3 -40 7 -9 47 -75 90 -145 43 -71 95
-150 115 -178 l38 -49 -80 0 c-61 0 -80 3 -80 14 0 7 -24 49 -52 92 -29 44
-62 97 -73 119 -11 22 -24 40 -30 39 -5 0 -26 -30 -45 -65 -19 -35 -48 -83
-63 -107 -15 -24 -32 -54 -37 -67 -9 -23 -15 -25 -75 -25 l-65 0 35 54 c19 29
63 107 98 172 34 66 69 128 76 139 12 19 9 28 -23 78 -20 31 -55 95 -77 142
-23 46 -57 103 -76 125 l-35 40 71 0 71 0 21 -42z"/>
<path d="M4404 851 c-72 -34 -135 -94 -172 -165 -25 -47 -27 -60 -27 -176 0
-116 2 -129 28 -185 38 -82 104 -146 189 -185 84 -39 146 -43 236 -16 75 23
86 39 80 113 -6 69 -20 84 -50 56 -33 -31 -71 -43 -134 -43 -130 0 -214 103
-214 262 0 131 71 214 192 224 55 5 70 2 113 -20 28 -14 53 -26 56 -26 10 0
61 131 54 138 -16 17 -168 51 -225 52 -51 0 -78 -6 -126 -29z m263 -3 c92 -25
89 -19 52 -105 l-18 -42 -57 26 c-156 71 -314 -36 -314 -213 0 -162 91 -274
224 -274 63 0 101 12 133 42 13 12 26 18 30 14 4 -3 9 -33 11 -65 4 -54 2 -61
-20 -75 -13 -8 -52 -22 -86 -31 -76 -20 -131 -11 -220 34 -73 37 -124 90 -159
166 -26 56 -28 69 -28 185 0 116 2 129 27 175 37 70 93 123 163 157 76 35 148
37 262 6z"/>
<path d="M4826 851 c12 -25 14 -89 12 -385 l-3 -356 73 0 72 0 0 160 0 160
126 0 125 0 -2 -162 -2 -163 74 4 c41 1 75 4 77 5 1 2 -3 16 -8 33 -7 20 -10
153 -8 382 l3 351 -75 0 -75 0 3 -155 3 -155 -120 0 -121 0 0 155 0 155 -84 0
-84 0 14 -29z m144 -136 l0 -155 130 0 131 0 -3 155 -3 155 65 0 65 0 -3 -347
c-2 -210 1 -358 7 -375 l10 -28 -54 0 c-29 0 -59 -2 -67 -5 -11 -4 -12 26 -10
160 l3 165 -135 0 -136 0 0 -160 0 -160 -62 0 -63 0 3 347 c1 207 -1 358 -7
375 l-10 28 70 0 69 0 0 -155z"/>
<path d="M5679 838 c-6 -24 -17 -54 -25 -68 -7 -14 -29 -72 -48 -130 -20 -58
-61 -177 -91 -265 -31 -88 -61 -176 -66 -195 -6 -19 -15 -39 -20 -44 -20 -21
-6 -26 69 -26 l78 0 22 75 22 75 123 0 123 0 22 -43 c12 -24 25 -58 28 -75 l7
-32 83 0 c46 0 84 2 84 5 0 2 -14 27 -30 56 -17 28 -37 68 -44 88 -8 20 -24
61 -36 91 -12 30 -41 109 -65 175 -56 159 -127 337 -131 332 -2 -2 15 -50 37
-108 23 -57 61 -158 84 -224 24 -66 53 -145 65 -175 12 -30 28 -71 36 -91 7
-20 27 -60 43 -88 l30 -51 -73 0 -73 0 -12 40 c-7 22 -21 56 -33 76 l-20 35
-127 -3 -126 -3 -24 -72 -24 -73 -68 0 c-63 0 -68 2 -59 18 5 9 17 37 25 62 9
25 36 104 60 175 24 72 65 189 91 260 26 72 55 153 65 180 17 48 19 50 61 56
l43 6 -47 1 -47 2 -12 -42z"/>
<path d="M6116 871 c-4 -6 -2 -19 4 -30 6 -13 10 -147 10 -375 l0 -356 65 0
65 0 2 228 3 227 22 -35 c29 -47 104 -154 113 -160 4 -3 13 -15 19 -28 17 -32
34 -52 116 -140 75 -80 122 -112 130 -90 2 7 6 183 7 391 l3 377 -77 0 -78 0
10 -26 c13 -33 13 -424 0 -424 -5 0 -26 30 -47 68 -20 37 -50 81 -65 97 -15
17 -31 38 -34 48 -3 9 -9 17 -13 17 -5 0 -14 12 -20 28 -20 45 -162 181 -197
188 -19 3 -34 2 -38 -5z m62 -15 c36 -19 121 -108 168 -176 22 -31 54 -76 72
-100 18 -25 48 -70 65 -100 18 -30 40 -56 50 -58 17 -3 18 9 15 222 l-3 226
64 0 c61 0 63 -1 57 -22 -3 -13 -6 -184 -6 -381 l0 -358 -22 12 c-34 17 -162
153 -202 213 -19 29 -42 58 -50 65 -9 8 -16 19 -16 25 0 7 -8 21 -18 32 -10
10 -32 40 -50 67 -18 26 -37 47 -42 47 -6 0 -10 -89 -10 -225 l0 -225 -55 0
-55 0 -2 358 c-2 196 -7 365 -12 375 -10 22 13 23 52 3z"/>
<path d="M6990 866 c-193 -69 -275 -295 -194 -539 20 -61 101 -150 168 -185
43 -23 64 -27 136 -27 56 0 107 7 148 19 l62 19 -2 186 -3 186 -118 3 -118 3
3 -58 3 -58 58 -3 57 -3 0 -76 0 -75 -83 3 c-73 4 -88 8 -120 32 -62 47 -72
76 -72 209 0 113 1 117 30 159 17 23 46 50 65 60 42 23 127 25 195 4 27 -8 49
-13 50 -12 0 1 12 26 27 55 l27 54 -35 14 c-101 42 -217 55 -284 30z m246 -26
l61 -21 -25 -48 -26 -49 -39 14 c-53 19 -147 18 -196 -2 -29 -11 -49 -30 -73
-67 -32 -51 -33 -54 -33 -167 0 -102 3 -120 23 -155 39 -68 81 -89 184 -94
l89 -3 -3 83 -3 84 -57 3 -58 3 0 49 0 50 110 0 110 0 0 -179 0 -179 -52 -19
c-36 -12 -82 -18 -143 -18 -78 0 -97 4 -141 27 -57 30 -129 105 -151 157 -8
19 -21 67 -30 105 -24 118 7 273 69 346 26 30 102 84 137 97 49 18 169 10 247
-17z"/>
<path d="M5727 611 c-4 -18 -20 -64 -36 -104 -15 -40 -32 -87 -35 -104 l-8
-33 86 0 c46 0 87 4 90 8 5 9 -62 215 -80 246 -10 16 -12 15 -17 -13z m93
-228 c0 -2 -36 -3 -80 -3 l-80 0 6 28 c4 15 19 59 34 97 15 39 31 79 35 90 5
15 17 -8 46 -95 21 -63 39 -116 39 -117z"/>
</g>
</svg>
